G04 #@! TF.GenerationSoftware,KiCad,Pcbnew,(5.1.5)-3*
G04 #@! TF.CreationDate,2020-03-14T12:37:38-04:00*
G04 #@! TF.ProjectId,CB3,4342332e-6b69-4636-9164-5f7063625858,rev?*
G04 #@! TF.SameCoordinates,Original*
G04 #@! TF.FileFunction,Soldermask,Top*
G04 #@! TF.FilePolarity,Negative*
%FSLAX46Y46*%
G04 Gerber Fmt 4.6, Leading zero omitted, Abs format (unit mm)*
G04 Created by KiCad (PCBNEW (5.1.5)-3) date 2020-03-14 12:37:38*
%MOMM*%
%LPD*%
G04 APERTURE LIST*
%ADD10C,0.100000*%
%ADD11O,1.600000X1.600000*%
%ADD12C,1.600000*%
%ADD13C,1.800000*%
%ADD14R,1.800000X1.800000*%
%ADD15O,2.000000X2.000000*%
%ADD16R,2.000000X2.000000*%
%ADD17O,2.200000X2.200000*%
%ADD18R,2.200000X2.200000*%
%ADD19R,1.600000X1.600000*%
%ADD20C,4.000000*%
%ADD21R,0.800000X0.900000*%
%ADD22C,2.100000*%
%ADD23R,2.100000X2.100000*%
%ADD24C,1.700000*%
G04 APERTURE END LIST*
D10*
G36*
X106107142Y-46443574D02*
G01*
X106130803Y-46447084D01*
X106154007Y-46452896D01*
X106176529Y-46460954D01*
X106198153Y-46471182D01*
X106218670Y-46483479D01*
X106237883Y-46497729D01*
X106255607Y-46513793D01*
X106271671Y-46531517D01*
X106285921Y-46550730D01*
X106298218Y-46571247D01*
X106308446Y-46592871D01*
X106316504Y-46615393D01*
X106322316Y-46638597D01*
X106325826Y-46662258D01*
X106327000Y-46686150D01*
X106327000Y-47598650D01*
X106325826Y-47622542D01*
X106322316Y-47646203D01*
X106316504Y-47669407D01*
X106308446Y-47691929D01*
X106298218Y-47713553D01*
X106285921Y-47734070D01*
X106271671Y-47753283D01*
X106255607Y-47771007D01*
X106237883Y-47787071D01*
X106218670Y-47801321D01*
X106198153Y-47813618D01*
X106176529Y-47823846D01*
X106154007Y-47831904D01*
X106130803Y-47837716D01*
X106107142Y-47841226D01*
X106083250Y-47842400D01*
X105595750Y-47842400D01*
X105571858Y-47841226D01*
X105548197Y-47837716D01*
X105524993Y-47831904D01*
X105502471Y-47823846D01*
X105480847Y-47813618D01*
X105460330Y-47801321D01*
X105441117Y-47787071D01*
X105423393Y-47771007D01*
X105407329Y-47753283D01*
X105393079Y-47734070D01*
X105380782Y-47713553D01*
X105370554Y-47691929D01*
X105362496Y-47669407D01*
X105356684Y-47646203D01*
X105353174Y-47622542D01*
X105352000Y-47598650D01*
X105352000Y-46686150D01*
X105353174Y-46662258D01*
X105356684Y-46638597D01*
X105362496Y-46615393D01*
X105370554Y-46592871D01*
X105380782Y-46571247D01*
X105393079Y-46550730D01*
X105407329Y-46531517D01*
X105423393Y-46513793D01*
X105441117Y-46497729D01*
X105460330Y-46483479D01*
X105480847Y-46471182D01*
X105502471Y-46460954D01*
X105524993Y-46452896D01*
X105548197Y-46447084D01*
X105571858Y-46443574D01*
X105595750Y-46442400D01*
X106083250Y-46442400D01*
X106107142Y-46443574D01*
G37*
G36*
X104232142Y-46443574D02*
G01*
X104255803Y-46447084D01*
X104279007Y-46452896D01*
X104301529Y-46460954D01*
X104323153Y-46471182D01*
X104343670Y-46483479D01*
X104362883Y-46497729D01*
X104380607Y-46513793D01*
X104396671Y-46531517D01*
X104410921Y-46550730D01*
X104423218Y-46571247D01*
X104433446Y-46592871D01*
X104441504Y-46615393D01*
X104447316Y-46638597D01*
X104450826Y-46662258D01*
X104452000Y-46686150D01*
X104452000Y-47598650D01*
X104450826Y-47622542D01*
X104447316Y-47646203D01*
X104441504Y-47669407D01*
X104433446Y-47691929D01*
X104423218Y-47713553D01*
X104410921Y-47734070D01*
X104396671Y-47753283D01*
X104380607Y-47771007D01*
X104362883Y-47787071D01*
X104343670Y-47801321D01*
X104323153Y-47813618D01*
X104301529Y-47823846D01*
X104279007Y-47831904D01*
X104255803Y-47837716D01*
X104232142Y-47841226D01*
X104208250Y-47842400D01*
X103720750Y-47842400D01*
X103696858Y-47841226D01*
X103673197Y-47837716D01*
X103649993Y-47831904D01*
X103627471Y-47823846D01*
X103605847Y-47813618D01*
X103585330Y-47801321D01*
X103566117Y-47787071D01*
X103548393Y-47771007D01*
X103532329Y-47753283D01*
X103518079Y-47734070D01*
X103505782Y-47713553D01*
X103495554Y-47691929D01*
X103487496Y-47669407D01*
X103481684Y-47646203D01*
X103478174Y-47622542D01*
X103477000Y-47598650D01*
X103477000Y-46686150D01*
X103478174Y-46662258D01*
X103481684Y-46638597D01*
X103487496Y-46615393D01*
X103495554Y-46592871D01*
X103505782Y-46571247D01*
X103518079Y-46550730D01*
X103532329Y-46531517D01*
X103548393Y-46513793D01*
X103566117Y-46497729D01*
X103585330Y-46483479D01*
X103605847Y-46471182D01*
X103627471Y-46460954D01*
X103649993Y-46452896D01*
X103673197Y-46447084D01*
X103696858Y-46443574D01*
X103720750Y-46442400D01*
X104208250Y-46442400D01*
X104232142Y-46443574D01*
G37*
D11*
X138176000Y-41910000D03*
D12*
X128016000Y-41910000D03*
D11*
X90170000Y-41910000D03*
D12*
X100330000Y-41910000D03*
D13*
X122174000Y-41910000D03*
D14*
X124714000Y-41910000D03*
D13*
X105918000Y-41910000D03*
D14*
X103378000Y-41910000D03*
D15*
X94996000Y-46278800D03*
D16*
X100076000Y-46278800D03*
D17*
X103460000Y-101400000D03*
D18*
X93300000Y-101400000D03*
D15*
X96000000Y-89380000D03*
D16*
X96000000Y-84300000D03*
D19*
X86360000Y-67564000D03*
D12*
X86360000Y-64794000D03*
X86360000Y-62024000D03*
X86360000Y-59254000D03*
X86360000Y-56484000D03*
X83520000Y-66179000D03*
X83520000Y-63409000D03*
X83520000Y-60639000D03*
X83520000Y-57869000D03*
D20*
X84940000Y-49524000D03*
X84940000Y-74524000D03*
D21*
X125984000Y-50276000D03*
X125034000Y-48276000D03*
X126934000Y-48276000D03*
D19*
X146304000Y-56388000D03*
D12*
X146304000Y-59158000D03*
X146304000Y-61928000D03*
X146304000Y-64698000D03*
X146304000Y-67468000D03*
X149144000Y-57773000D03*
X149144000Y-60543000D03*
X149144000Y-63313000D03*
X149144000Y-66083000D03*
D20*
X147724000Y-74428000D03*
X147724000Y-49428000D03*
D19*
X111506000Y-61468000D03*
D11*
X119126000Y-76708000D03*
X111506000Y-64008000D03*
X119126000Y-74168000D03*
X111506000Y-66548000D03*
X119126000Y-71628000D03*
X111506000Y-69088000D03*
X119126000Y-69088000D03*
X111506000Y-71628000D03*
X119126000Y-66548000D03*
X111506000Y-74168000D03*
X119126000Y-64008000D03*
X111506000Y-76708000D03*
X119126000Y-61468000D03*
D22*
X110236000Y-42418000D03*
X112776000Y-42418000D03*
X115316000Y-42418000D03*
D23*
X117856000Y-42418000D03*
D10*
G36*
X108520142Y-55816174D02*
G01*
X108543803Y-55819684D01*
X108567007Y-55825496D01*
X108589529Y-55833554D01*
X108611153Y-55843782D01*
X108631670Y-55856079D01*
X108650883Y-55870329D01*
X108668607Y-55886393D01*
X108684671Y-55904117D01*
X108698921Y-55923330D01*
X108711218Y-55943847D01*
X108721446Y-55965471D01*
X108729504Y-55987993D01*
X108735316Y-56011197D01*
X108738826Y-56034858D01*
X108740000Y-56058750D01*
X108740000Y-56971250D01*
X108738826Y-56995142D01*
X108735316Y-57018803D01*
X108729504Y-57042007D01*
X108721446Y-57064529D01*
X108711218Y-57086153D01*
X108698921Y-57106670D01*
X108684671Y-57125883D01*
X108668607Y-57143607D01*
X108650883Y-57159671D01*
X108631670Y-57173921D01*
X108611153Y-57186218D01*
X108589529Y-57196446D01*
X108567007Y-57204504D01*
X108543803Y-57210316D01*
X108520142Y-57213826D01*
X108496250Y-57215000D01*
X108008750Y-57215000D01*
X107984858Y-57213826D01*
X107961197Y-57210316D01*
X107937993Y-57204504D01*
X107915471Y-57196446D01*
X107893847Y-57186218D01*
X107873330Y-57173921D01*
X107854117Y-57159671D01*
X107836393Y-57143607D01*
X107820329Y-57125883D01*
X107806079Y-57106670D01*
X107793782Y-57086153D01*
X107783554Y-57064529D01*
X107775496Y-57042007D01*
X107769684Y-57018803D01*
X107766174Y-56995142D01*
X107765000Y-56971250D01*
X107765000Y-56058750D01*
X107766174Y-56034858D01*
X107769684Y-56011197D01*
X107775496Y-55987993D01*
X107783554Y-55965471D01*
X107793782Y-55943847D01*
X107806079Y-55923330D01*
X107820329Y-55904117D01*
X107836393Y-55886393D01*
X107854117Y-55870329D01*
X107873330Y-55856079D01*
X107893847Y-55843782D01*
X107915471Y-55833554D01*
X107937993Y-55825496D01*
X107961197Y-55819684D01*
X107984858Y-55816174D01*
X108008750Y-55815000D01*
X108496250Y-55815000D01*
X108520142Y-55816174D01*
G37*
G36*
X106645142Y-55816174D02*
G01*
X106668803Y-55819684D01*
X106692007Y-55825496D01*
X106714529Y-55833554D01*
X106736153Y-55843782D01*
X106756670Y-55856079D01*
X106775883Y-55870329D01*
X106793607Y-55886393D01*
X106809671Y-55904117D01*
X106823921Y-55923330D01*
X106836218Y-55943847D01*
X106846446Y-55965471D01*
X106854504Y-55987993D01*
X106860316Y-56011197D01*
X106863826Y-56034858D01*
X106865000Y-56058750D01*
X106865000Y-56971250D01*
X106863826Y-56995142D01*
X106860316Y-57018803D01*
X106854504Y-57042007D01*
X106846446Y-57064529D01*
X106836218Y-57086153D01*
X106823921Y-57106670D01*
X106809671Y-57125883D01*
X106793607Y-57143607D01*
X106775883Y-57159671D01*
X106756670Y-57173921D01*
X106736153Y-57186218D01*
X106714529Y-57196446D01*
X106692007Y-57204504D01*
X106668803Y-57210316D01*
X106645142Y-57213826D01*
X106621250Y-57215000D01*
X106133750Y-57215000D01*
X106109858Y-57213826D01*
X106086197Y-57210316D01*
X106062993Y-57204504D01*
X106040471Y-57196446D01*
X106018847Y-57186218D01*
X105998330Y-57173921D01*
X105979117Y-57159671D01*
X105961393Y-57143607D01*
X105945329Y-57125883D01*
X105931079Y-57106670D01*
X105918782Y-57086153D01*
X105908554Y-57064529D01*
X105900496Y-57042007D01*
X105894684Y-57018803D01*
X105891174Y-56995142D01*
X105890000Y-56971250D01*
X105890000Y-56058750D01*
X105891174Y-56034858D01*
X105894684Y-56011197D01*
X105900496Y-55987993D01*
X105908554Y-55965471D01*
X105918782Y-55943847D01*
X105931079Y-55923330D01*
X105945329Y-55904117D01*
X105961393Y-55886393D01*
X105979117Y-55870329D01*
X105998330Y-55856079D01*
X106018847Y-55843782D01*
X106040471Y-55833554D01*
X106062993Y-55825496D01*
X106086197Y-55819684D01*
X106109858Y-55816174D01*
X106133750Y-55815000D01*
X106621250Y-55815000D01*
X106645142Y-55816174D01*
G37*
G36*
X108647142Y-78803174D02*
G01*
X108670803Y-78806684D01*
X108694007Y-78812496D01*
X108716529Y-78820554D01*
X108738153Y-78830782D01*
X108758670Y-78843079D01*
X108777883Y-78857329D01*
X108795607Y-78873393D01*
X108811671Y-78891117D01*
X108825921Y-78910330D01*
X108838218Y-78930847D01*
X108848446Y-78952471D01*
X108856504Y-78974993D01*
X108862316Y-78998197D01*
X108865826Y-79021858D01*
X108867000Y-79045750D01*
X108867000Y-79958250D01*
X108865826Y-79982142D01*
X108862316Y-80005803D01*
X108856504Y-80029007D01*
X108848446Y-80051529D01*
X108838218Y-80073153D01*
X108825921Y-80093670D01*
X108811671Y-80112883D01*
X108795607Y-80130607D01*
X108777883Y-80146671D01*
X108758670Y-80160921D01*
X108738153Y-80173218D01*
X108716529Y-80183446D01*
X108694007Y-80191504D01*
X108670803Y-80197316D01*
X108647142Y-80200826D01*
X108623250Y-80202000D01*
X108135750Y-80202000D01*
X108111858Y-80200826D01*
X108088197Y-80197316D01*
X108064993Y-80191504D01*
X108042471Y-80183446D01*
X108020847Y-80173218D01*
X108000330Y-80160921D01*
X107981117Y-80146671D01*
X107963393Y-80130607D01*
X107947329Y-80112883D01*
X107933079Y-80093670D01*
X107920782Y-80073153D01*
X107910554Y-80051529D01*
X107902496Y-80029007D01*
X107896684Y-80005803D01*
X107893174Y-79982142D01*
X107892000Y-79958250D01*
X107892000Y-79045750D01*
X107893174Y-79021858D01*
X107896684Y-78998197D01*
X107902496Y-78974993D01*
X107910554Y-78952471D01*
X107920782Y-78930847D01*
X107933079Y-78910330D01*
X107947329Y-78891117D01*
X107963393Y-78873393D01*
X107981117Y-78857329D01*
X108000330Y-78843079D01*
X108020847Y-78830782D01*
X108042471Y-78820554D01*
X108064993Y-78812496D01*
X108088197Y-78806684D01*
X108111858Y-78803174D01*
X108135750Y-78802000D01*
X108623250Y-78802000D01*
X108647142Y-78803174D01*
G37*
G36*
X106772142Y-78803174D02*
G01*
X106795803Y-78806684D01*
X106819007Y-78812496D01*
X106841529Y-78820554D01*
X106863153Y-78830782D01*
X106883670Y-78843079D01*
X106902883Y-78857329D01*
X106920607Y-78873393D01*
X106936671Y-78891117D01*
X106950921Y-78910330D01*
X106963218Y-78930847D01*
X106973446Y-78952471D01*
X106981504Y-78974993D01*
X106987316Y-78998197D01*
X106990826Y-79021858D01*
X106992000Y-79045750D01*
X106992000Y-79958250D01*
X106990826Y-79982142D01*
X106987316Y-80005803D01*
X106981504Y-80029007D01*
X106973446Y-80051529D01*
X106963218Y-80073153D01*
X106950921Y-80093670D01*
X106936671Y-80112883D01*
X106920607Y-80130607D01*
X106902883Y-80146671D01*
X106883670Y-80160921D01*
X106863153Y-80173218D01*
X106841529Y-80183446D01*
X106819007Y-80191504D01*
X106795803Y-80197316D01*
X106772142Y-80200826D01*
X106748250Y-80202000D01*
X106260750Y-80202000D01*
X106236858Y-80200826D01*
X106213197Y-80197316D01*
X106189993Y-80191504D01*
X106167471Y-80183446D01*
X106145847Y-80173218D01*
X106125330Y-80160921D01*
X106106117Y-80146671D01*
X106088393Y-80130607D01*
X106072329Y-80112883D01*
X106058079Y-80093670D01*
X106045782Y-80073153D01*
X106035554Y-80051529D01*
X106027496Y-80029007D01*
X106021684Y-80005803D01*
X106018174Y-79982142D01*
X106017000Y-79958250D01*
X106017000Y-79045750D01*
X106018174Y-79021858D01*
X106021684Y-78998197D01*
X106027496Y-78974993D01*
X106035554Y-78952471D01*
X106045782Y-78930847D01*
X106058079Y-78910330D01*
X106072329Y-78891117D01*
X106088393Y-78873393D01*
X106106117Y-78857329D01*
X106125330Y-78843079D01*
X106145847Y-78830782D01*
X106167471Y-78820554D01*
X106189993Y-78812496D01*
X106213197Y-78806684D01*
X106236858Y-78803174D01*
X106260750Y-78802000D01*
X106748250Y-78802000D01*
X106772142Y-78803174D01*
G37*
D24*
X130406000Y-100402000D03*
X136906000Y-100402000D03*
X130406000Y-104902000D03*
X136906000Y-104902000D03*
X130406000Y-109546000D03*
X136906000Y-109546000D03*
X130406000Y-114046000D03*
X136906000Y-114046000D03*
D11*
X137668000Y-82804000D03*
D12*
X127508000Y-82804000D03*
D11*
X127508000Y-87884000D03*
D12*
X137668000Y-87884000D03*
D11*
X110236000Y-49022000D03*
D12*
X120396000Y-49022000D03*
D11*
X120904000Y-97536000D03*
D12*
X110744000Y-97536000D03*
D11*
X93472000Y-52070000D03*
D12*
X103632000Y-52070000D03*
D11*
X103632000Y-61214000D03*
D12*
X93472000Y-61214000D03*
D11*
X93472000Y-56642000D03*
D12*
X103632000Y-56642000D03*
D11*
X93472000Y-97536000D03*
D12*
X103632000Y-97536000D03*
D11*
X110744000Y-94234000D03*
D12*
X120904000Y-94234000D03*
D11*
X103632000Y-71120000D03*
D12*
X93472000Y-71120000D03*
D11*
X93472000Y-75946000D03*
D12*
X103632000Y-75946000D03*
D11*
X93472000Y-79502000D03*
D12*
X103632000Y-79502000D03*
D11*
X103632000Y-94234000D03*
D12*
X93472000Y-94234000D03*
D11*
X103272000Y-87884000D03*
D12*
X113432000Y-87884000D03*
D11*
X103272000Y-84582000D03*
D12*
X113432000Y-84582000D03*
D19*
X146304000Y-99568000D03*
D12*
X146304000Y-96798000D03*
X146304000Y-94028000D03*
X146304000Y-91258000D03*
X146304000Y-88488000D03*
X149144000Y-98183000D03*
X149144000Y-95413000D03*
X149144000Y-92643000D03*
X149144000Y-89873000D03*
D20*
X147724000Y-106528000D03*
X147724000Y-81528000D03*
D19*
X101092000Y-105664000D03*
D12*
X103862000Y-105664000D03*
X106632000Y-105664000D03*
X109402000Y-105664000D03*
X112172000Y-105664000D03*
X102477000Y-108504000D03*
X105247000Y-108504000D03*
X108017000Y-108504000D03*
X110787000Y-108504000D03*
D20*
X94132000Y-107084000D03*
X119132000Y-107084000D03*
D19*
X86360000Y-99568000D03*
D12*
X86360000Y-96798000D03*
X86360000Y-94028000D03*
X86360000Y-91258000D03*
X86360000Y-88488000D03*
X83520000Y-98183000D03*
X83520000Y-95413000D03*
X83520000Y-92643000D03*
X83520000Y-89873000D03*
D20*
X84940000Y-81528000D03*
X84940000Y-106528000D03*
M02*
