G04 #@! TF.GenerationSoftware,KiCad,Pcbnew,5.1.6-c6e7f7d~87~ubuntu20.04.1*
G04 #@! TF.CreationDate,2020-09-21T01:24:30-04:00*
G04 #@! TF.ProjectId,CB3,4342332e-6b69-4636-9164-5f7063625858,rev?*
G04 #@! TF.SameCoordinates,Original*
G04 #@! TF.FileFunction,Legend,Top*
G04 #@! TF.FilePolarity,Positive*
%FSLAX46Y46*%
G04 Gerber Fmt 4.6, Leading zero omitted, Abs format (unit mm)*
G04 Created by KiCad (PCBNEW 5.1.6-c6e7f7d~87~ubuntu20.04.1) date 2020-09-21 01:24:30*
%MOMM*%
%LPD*%
G01*
G04 APERTURE LIST*
%ADD10C,0.200000*%
%ADD11C,0.150000*%
%ADD12C,0.120000*%
G04 APERTURE END LIST*
D10*
X124165714Y-61453571D02*
X124394285Y-61453571D01*
X124508571Y-61525000D01*
X124622857Y-61667857D01*
X124680000Y-61953571D01*
X124680000Y-62453571D01*
X124622857Y-62739285D01*
X124508571Y-62882142D01*
X124394285Y-62953571D01*
X124165714Y-62953571D01*
X124051428Y-62882142D01*
X123937142Y-62739285D01*
X123880000Y-62453571D01*
X123880000Y-61953571D01*
X123937142Y-61667857D01*
X124051428Y-61525000D01*
X124165714Y-61453571D01*
X125708571Y-62953571D02*
X125708571Y-62167857D01*
X125651428Y-62025000D01*
X125537142Y-61953571D01*
X125308571Y-61953571D01*
X125194285Y-62025000D01*
X125708571Y-62882142D02*
X125594285Y-62953571D01*
X125308571Y-62953571D01*
X125194285Y-62882142D01*
X125137142Y-62739285D01*
X125137142Y-62596428D01*
X125194285Y-62453571D01*
X125308571Y-62382142D01*
X125594285Y-62382142D01*
X125708571Y-62310714D01*
X126280000Y-62953571D02*
X126280000Y-61453571D01*
X126394285Y-62382142D02*
X126737142Y-62953571D01*
X126737142Y-61953571D02*
X126280000Y-62525000D01*
X127422857Y-62953571D02*
X127308571Y-62882142D01*
X127251428Y-62739285D01*
X127251428Y-61453571D01*
X128394285Y-62953571D02*
X128394285Y-62167857D01*
X128337142Y-62025000D01*
X128222857Y-61953571D01*
X127994285Y-61953571D01*
X127880000Y-62025000D01*
X128394285Y-62882142D02*
X128280000Y-62953571D01*
X127994285Y-62953571D01*
X127880000Y-62882142D01*
X127822857Y-62739285D01*
X127822857Y-62596428D01*
X127880000Y-62453571D01*
X127994285Y-62382142D01*
X128280000Y-62382142D01*
X128394285Y-62310714D01*
X128965714Y-61953571D02*
X128965714Y-62953571D01*
X128965714Y-62096428D02*
X129022857Y-62025000D01*
X129137142Y-61953571D01*
X129308571Y-61953571D01*
X129422857Y-62025000D01*
X129480000Y-62167857D01*
X129480000Y-62953571D01*
X130565714Y-62953571D02*
X130565714Y-61453571D01*
X130565714Y-62882142D02*
X130451428Y-62953571D01*
X130222857Y-62953571D01*
X130108571Y-62882142D01*
X130051428Y-62810714D01*
X129994285Y-62667857D01*
X129994285Y-62239285D01*
X130051428Y-62096428D01*
X130108571Y-62025000D01*
X130222857Y-61953571D01*
X130451428Y-61953571D01*
X130565714Y-62025000D01*
X132051428Y-61453571D02*
X132051428Y-62667857D01*
X132108571Y-62810714D01*
X132165714Y-62882142D01*
X132280000Y-62953571D01*
X132508571Y-62953571D01*
X132622857Y-62882142D01*
X132680000Y-62810714D01*
X132737142Y-62667857D01*
X132737142Y-61453571D01*
X133308571Y-61953571D02*
X133308571Y-62953571D01*
X133308571Y-62096428D02*
X133365714Y-62025000D01*
X133480000Y-61953571D01*
X133651428Y-61953571D01*
X133765714Y-62025000D01*
X133822857Y-62167857D01*
X133822857Y-62953571D01*
X134394285Y-62953571D02*
X134394285Y-61953571D01*
X134394285Y-61453571D02*
X134337142Y-61525000D01*
X134394285Y-61596428D01*
X134451428Y-61525000D01*
X134394285Y-61453571D01*
X134394285Y-61596428D01*
X134851428Y-61953571D02*
X135137142Y-62953571D01*
X135422857Y-61953571D01*
X136337142Y-62882142D02*
X136222857Y-62953571D01*
X135994285Y-62953571D01*
X135880000Y-62882142D01*
X135822857Y-62739285D01*
X135822857Y-62167857D01*
X135880000Y-62025000D01*
X135994285Y-61953571D01*
X136222857Y-61953571D01*
X136337142Y-62025000D01*
X136394285Y-62167857D01*
X136394285Y-62310714D01*
X135822857Y-62453571D01*
X136908571Y-62953571D02*
X136908571Y-61953571D01*
X136908571Y-62239285D02*
X136965714Y-62096428D01*
X137022857Y-62025000D01*
X137137142Y-61953571D01*
X137251428Y-61953571D01*
X137594285Y-62882142D02*
X137708571Y-62953571D01*
X137937142Y-62953571D01*
X138051428Y-62882142D01*
X138108571Y-62739285D01*
X138108571Y-62667857D01*
X138051428Y-62525000D01*
X137937142Y-62453571D01*
X137765714Y-62453571D01*
X137651428Y-62382142D01*
X137594285Y-62239285D01*
X137594285Y-62167857D01*
X137651428Y-62025000D01*
X137765714Y-61953571D01*
X137937142Y-61953571D01*
X138051428Y-62025000D01*
X138622857Y-62953571D02*
X138622857Y-61953571D01*
X138622857Y-61453571D02*
X138565714Y-61525000D01*
X138622857Y-61596428D01*
X138680000Y-61525000D01*
X138622857Y-61453571D01*
X138622857Y-61596428D01*
X139022857Y-61953571D02*
X139480000Y-61953571D01*
X139194285Y-61453571D02*
X139194285Y-62739285D01*
X139251428Y-62882142D01*
X139365714Y-62953571D01*
X139480000Y-62953571D01*
X139765714Y-61953571D02*
X140051428Y-62953571D01*
X140337142Y-61953571D02*
X140051428Y-62953571D01*
X139937142Y-63310714D01*
X139880000Y-63382142D01*
X139765714Y-63453571D01*
X123565714Y-65332142D02*
X123737142Y-65403571D01*
X124022857Y-65403571D01*
X124137142Y-65332142D01*
X124194285Y-65260714D01*
X124251428Y-65117857D01*
X124251428Y-64975000D01*
X124194285Y-64832142D01*
X124137142Y-64760714D01*
X124022857Y-64689285D01*
X123794285Y-64617857D01*
X123680000Y-64546428D01*
X123622857Y-64475000D01*
X123565714Y-64332142D01*
X123565714Y-64189285D01*
X123622857Y-64046428D01*
X123680000Y-63975000D01*
X123794285Y-63903571D01*
X124080000Y-63903571D01*
X124251428Y-63975000D01*
X124765714Y-65403571D02*
X124765714Y-64403571D01*
X124765714Y-64546428D02*
X124822857Y-64475000D01*
X124937142Y-64403571D01*
X125108571Y-64403571D01*
X125222857Y-64475000D01*
X125280000Y-64617857D01*
X125280000Y-65403571D01*
X125280000Y-64617857D02*
X125337142Y-64475000D01*
X125451428Y-64403571D01*
X125622857Y-64403571D01*
X125737142Y-64475000D01*
X125794285Y-64617857D01*
X125794285Y-65403571D01*
X126880000Y-65403571D02*
X126880000Y-64617857D01*
X126822857Y-64475000D01*
X126708571Y-64403571D01*
X126480000Y-64403571D01*
X126365714Y-64475000D01*
X126880000Y-65332142D02*
X126765714Y-65403571D01*
X126480000Y-65403571D01*
X126365714Y-65332142D01*
X126308571Y-65189285D01*
X126308571Y-65046428D01*
X126365714Y-64903571D01*
X126480000Y-64832142D01*
X126765714Y-64832142D01*
X126880000Y-64760714D01*
X127451428Y-65403571D02*
X127451428Y-64403571D01*
X127451428Y-64689285D02*
X127508571Y-64546428D01*
X127565714Y-64475000D01*
X127680000Y-64403571D01*
X127794285Y-64403571D01*
X128022857Y-64403571D02*
X128480000Y-64403571D01*
X128194285Y-63903571D02*
X128194285Y-65189285D01*
X128251428Y-65332142D01*
X128365714Y-65403571D01*
X128480000Y-65403571D01*
X129622857Y-63903571D02*
X130022857Y-65403571D01*
X130422857Y-63903571D01*
X131280000Y-65332142D02*
X131165714Y-65403571D01*
X130937142Y-65403571D01*
X130822857Y-65332142D01*
X130765714Y-65189285D01*
X130765714Y-64617857D01*
X130822857Y-64475000D01*
X130937142Y-64403571D01*
X131165714Y-64403571D01*
X131280000Y-64475000D01*
X131337142Y-64617857D01*
X131337142Y-64760714D01*
X130765714Y-64903571D01*
X131851428Y-65403571D02*
X131851428Y-63903571D01*
X132365714Y-65403571D02*
X132365714Y-64617857D01*
X132308571Y-64475000D01*
X132194285Y-64403571D01*
X132022857Y-64403571D01*
X131908571Y-64475000D01*
X131851428Y-64546428D01*
X132937142Y-65403571D02*
X132937142Y-64403571D01*
X132937142Y-63903571D02*
X132880000Y-63975000D01*
X132937142Y-64046428D01*
X132994285Y-63975000D01*
X132937142Y-63903571D01*
X132937142Y-64046428D01*
X134022857Y-65332142D02*
X133908571Y-65403571D01*
X133680000Y-65403571D01*
X133565714Y-65332142D01*
X133508571Y-65260714D01*
X133451428Y-65117857D01*
X133451428Y-64689285D01*
X133508571Y-64546428D01*
X133565714Y-64475000D01*
X133680000Y-64403571D01*
X133908571Y-64403571D01*
X134022857Y-64475000D01*
X134708571Y-65403571D02*
X134594285Y-65332142D01*
X134537142Y-65189285D01*
X134537142Y-63903571D01*
X135622857Y-65332142D02*
X135508571Y-65403571D01*
X135280000Y-65403571D01*
X135165714Y-65332142D01*
X135108571Y-65189285D01*
X135108571Y-64617857D01*
X135165714Y-64475000D01*
X135280000Y-64403571D01*
X135508571Y-64403571D01*
X135622857Y-64475000D01*
X135680000Y-64617857D01*
X135680000Y-64760714D01*
X135108571Y-64903571D01*
X137794285Y-65260714D02*
X137737142Y-65332142D01*
X137565714Y-65403571D01*
X137451428Y-65403571D01*
X137280000Y-65332142D01*
X137165714Y-65189285D01*
X137108571Y-65046428D01*
X137051428Y-64760714D01*
X137051428Y-64546428D01*
X137108571Y-64260714D01*
X137165714Y-64117857D01*
X137280000Y-63975000D01*
X137451428Y-63903571D01*
X137565714Y-63903571D01*
X137737142Y-63975000D01*
X137794285Y-64046428D01*
X138480000Y-65403571D02*
X138365714Y-65332142D01*
X138308571Y-65189285D01*
X138308571Y-63903571D01*
X139451428Y-64403571D02*
X139451428Y-65403571D01*
X138937142Y-64403571D02*
X138937142Y-65189285D01*
X138994285Y-65332142D01*
X139108571Y-65403571D01*
X139280000Y-65403571D01*
X139394285Y-65332142D01*
X139451428Y-65260714D01*
X140022857Y-65403571D02*
X140022857Y-63903571D01*
X140022857Y-64475000D02*
X140137142Y-64403571D01*
X140365714Y-64403571D01*
X140480000Y-64475000D01*
X140537142Y-64546428D01*
X140594285Y-64689285D01*
X140594285Y-65117857D01*
X140537142Y-65260714D01*
X140480000Y-65332142D01*
X140365714Y-65403571D01*
X140137142Y-65403571D01*
X140022857Y-65332142D01*
D11*
X90535238Y-46442380D02*
X90059047Y-46442380D01*
X90011428Y-46918571D01*
X90059047Y-46870952D01*
X90154285Y-46823333D01*
X90392380Y-46823333D01*
X90487619Y-46870952D01*
X90535238Y-46918571D01*
X90582857Y-47013809D01*
X90582857Y-47251904D01*
X90535238Y-47347142D01*
X90487619Y-47394761D01*
X90392380Y-47442380D01*
X90154285Y-47442380D01*
X90059047Y-47394761D01*
X90011428Y-47347142D01*
X91011428Y-47347142D02*
X91059047Y-47394761D01*
X91011428Y-47442380D01*
X90963809Y-47394761D01*
X91011428Y-47347142D01*
X91011428Y-47442380D01*
X91916190Y-46442380D02*
X91725714Y-46442380D01*
X91630476Y-46490000D01*
X91582857Y-46537619D01*
X91487619Y-46680476D01*
X91440000Y-46870952D01*
X91440000Y-47251904D01*
X91487619Y-47347142D01*
X91535238Y-47394761D01*
X91630476Y-47442380D01*
X91820952Y-47442380D01*
X91916190Y-47394761D01*
X91963809Y-47347142D01*
X92011428Y-47251904D01*
X92011428Y-47013809D01*
X91963809Y-46918571D01*
X91916190Y-46870952D01*
X91820952Y-46823333D01*
X91630476Y-46823333D01*
X91535238Y-46870952D01*
X91487619Y-46918571D01*
X91440000Y-47013809D01*
X92297142Y-46442380D02*
X92630476Y-47442380D01*
X92963809Y-46442380D01*
X132881714Y-42362380D02*
X132310285Y-42362380D01*
X132596000Y-42362380D02*
X132596000Y-41362380D01*
X132500761Y-41505238D01*
X132405523Y-41600476D01*
X132310285Y-41648095D01*
X133310285Y-42362380D02*
X133310285Y-41362380D01*
X133881714Y-42362380D02*
X133453142Y-41790952D01*
X133881714Y-41362380D02*
X133310285Y-41933809D01*
X93964285Y-41362380D02*
X94583333Y-41362380D01*
X94250000Y-41743333D01*
X94392857Y-41743333D01*
X94488095Y-41790952D01*
X94535714Y-41838571D01*
X94583333Y-41933809D01*
X94583333Y-42171904D01*
X94535714Y-42267142D01*
X94488095Y-42314761D01*
X94392857Y-42362380D01*
X94107142Y-42362380D01*
X94011904Y-42314761D01*
X93964285Y-42267142D01*
X94916666Y-41362380D02*
X95535714Y-41362380D01*
X95202380Y-41743333D01*
X95345238Y-41743333D01*
X95440476Y-41790952D01*
X95488095Y-41838571D01*
X95535714Y-41933809D01*
X95535714Y-42171904D01*
X95488095Y-42267142D01*
X95440476Y-42314761D01*
X95345238Y-42362380D01*
X95059523Y-42362380D01*
X94964285Y-42314761D01*
X94916666Y-42267142D01*
X96154761Y-41362380D02*
X96250000Y-41362380D01*
X96345238Y-41410000D01*
X96392857Y-41457619D01*
X96440476Y-41552857D01*
X96488095Y-41743333D01*
X96488095Y-41981428D01*
X96440476Y-42171904D01*
X96392857Y-42267142D01*
X96345238Y-42314761D01*
X96250000Y-42362380D01*
X96154761Y-42362380D01*
X96059523Y-42314761D01*
X96011904Y-42267142D01*
X95964285Y-42171904D01*
X95916666Y-41981428D01*
X95916666Y-41743333D01*
X95964285Y-41552857D01*
X96011904Y-41457619D01*
X96059523Y-41410000D01*
X96154761Y-41362380D01*
X93052380Y-88276190D02*
X93052380Y-87657142D01*
X93433333Y-87990476D01*
X93433333Y-87847619D01*
X93480952Y-87752380D01*
X93528571Y-87704761D01*
X93623809Y-87657142D01*
X93861904Y-87657142D01*
X93957142Y-87704761D01*
X94004761Y-87752380D01*
X94052380Y-87847619D01*
X94052380Y-88133333D01*
X94004761Y-88228571D01*
X93957142Y-88276190D01*
X93957142Y-87228571D02*
X94004761Y-87180952D01*
X94052380Y-87228571D01*
X94004761Y-87276190D01*
X93957142Y-87228571D01*
X94052380Y-87228571D01*
X93052380Y-86847619D02*
X93052380Y-86228571D01*
X93433333Y-86561904D01*
X93433333Y-86419047D01*
X93480952Y-86323809D01*
X93528571Y-86276190D01*
X93623809Y-86228571D01*
X93861904Y-86228571D01*
X93957142Y-86276190D01*
X94004761Y-86323809D01*
X94052380Y-86419047D01*
X94052380Y-86704761D01*
X94004761Y-86800000D01*
X93957142Y-86847619D01*
X93052380Y-85942857D02*
X94052380Y-85609523D01*
X93052380Y-85276190D01*
X114161904Y-97147619D02*
X114209523Y-97100000D01*
X114304761Y-97052380D01*
X114542857Y-97052380D01*
X114638095Y-97100000D01*
X114685714Y-97147619D01*
X114733333Y-97242857D01*
X114733333Y-97338095D01*
X114685714Y-97480952D01*
X114114285Y-98052380D01*
X114733333Y-98052380D01*
X115114285Y-97147619D02*
X115161904Y-97100000D01*
X115257142Y-97052380D01*
X115495238Y-97052380D01*
X115590476Y-97100000D01*
X115638095Y-97147619D01*
X115685714Y-97242857D01*
X115685714Y-97338095D01*
X115638095Y-97480952D01*
X115066666Y-98052380D01*
X115685714Y-98052380D01*
X116304761Y-97052380D02*
X116400000Y-97052380D01*
X116495238Y-97100000D01*
X116542857Y-97147619D01*
X116590476Y-97242857D01*
X116638095Y-97433333D01*
X116638095Y-97671428D01*
X116590476Y-97861904D01*
X116542857Y-97957142D01*
X116495238Y-98004761D01*
X116400000Y-98052380D01*
X116304761Y-98052380D01*
X116209523Y-98004761D01*
X116161904Y-97957142D01*
X116114285Y-97861904D01*
X116066666Y-97671428D01*
X116066666Y-97433333D01*
X116114285Y-97242857D01*
X116161904Y-97147619D01*
X116209523Y-97100000D01*
X116304761Y-97052380D01*
X117066666Y-98052380D02*
X117066666Y-97052380D01*
X117638095Y-98052380D02*
X117209523Y-97480952D01*
X117638095Y-97052380D02*
X117066666Y-97623809D01*
X114014285Y-93752380D02*
X114633333Y-93752380D01*
X114300000Y-94133333D01*
X114442857Y-94133333D01*
X114538095Y-94180952D01*
X114585714Y-94228571D01*
X114633333Y-94323809D01*
X114633333Y-94561904D01*
X114585714Y-94657142D01*
X114538095Y-94704761D01*
X114442857Y-94752380D01*
X114157142Y-94752380D01*
X114061904Y-94704761D01*
X114014285Y-94657142D01*
X114966666Y-93752380D02*
X115585714Y-93752380D01*
X115252380Y-94133333D01*
X115395238Y-94133333D01*
X115490476Y-94180952D01*
X115538095Y-94228571D01*
X115585714Y-94323809D01*
X115585714Y-94561904D01*
X115538095Y-94657142D01*
X115490476Y-94704761D01*
X115395238Y-94752380D01*
X115109523Y-94752380D01*
X115014285Y-94704761D01*
X114966666Y-94657142D01*
X116204761Y-93752380D02*
X116300000Y-93752380D01*
X116395238Y-93800000D01*
X116442857Y-93847619D01*
X116490476Y-93942857D01*
X116538095Y-94133333D01*
X116538095Y-94371428D01*
X116490476Y-94561904D01*
X116442857Y-94657142D01*
X116395238Y-94704761D01*
X116300000Y-94752380D01*
X116204761Y-94752380D01*
X116109523Y-94704761D01*
X116061904Y-94657142D01*
X116014285Y-94561904D01*
X115966666Y-94371428D01*
X115966666Y-94133333D01*
X116014285Y-93942857D01*
X116061904Y-93847619D01*
X116109523Y-93800000D01*
X116204761Y-93752380D01*
X116966666Y-94752380D02*
X116966666Y-93752380D01*
X117538095Y-94752380D02*
X117109523Y-94180952D01*
X117538095Y-93752380D02*
X116966666Y-94323809D01*
X96761904Y-97147619D02*
X96809523Y-97100000D01*
X96904761Y-97052380D01*
X97142857Y-97052380D01*
X97238095Y-97100000D01*
X97285714Y-97147619D01*
X97333333Y-97242857D01*
X97333333Y-97338095D01*
X97285714Y-97480952D01*
X96714285Y-98052380D01*
X97333333Y-98052380D01*
X97714285Y-97147619D02*
X97761904Y-97100000D01*
X97857142Y-97052380D01*
X98095238Y-97052380D01*
X98190476Y-97100000D01*
X98238095Y-97147619D01*
X98285714Y-97242857D01*
X98285714Y-97338095D01*
X98238095Y-97480952D01*
X97666666Y-98052380D01*
X98285714Y-98052380D01*
X98904761Y-97052380D02*
X99000000Y-97052380D01*
X99095238Y-97100000D01*
X99142857Y-97147619D01*
X99190476Y-97242857D01*
X99238095Y-97433333D01*
X99238095Y-97671428D01*
X99190476Y-97861904D01*
X99142857Y-97957142D01*
X99095238Y-98004761D01*
X99000000Y-98052380D01*
X98904761Y-98052380D01*
X98809523Y-98004761D01*
X98761904Y-97957142D01*
X98714285Y-97861904D01*
X98666666Y-97671428D01*
X98666666Y-97433333D01*
X98714285Y-97242857D01*
X98761904Y-97147619D01*
X98809523Y-97100000D01*
X98904761Y-97052380D01*
X99666666Y-98052380D02*
X99666666Y-97052380D01*
X100238095Y-98052380D02*
X99809523Y-97480952D01*
X100238095Y-97052380D02*
X99666666Y-97623809D01*
X96614285Y-93752380D02*
X97233333Y-93752380D01*
X96900000Y-94133333D01*
X97042857Y-94133333D01*
X97138095Y-94180952D01*
X97185714Y-94228571D01*
X97233333Y-94323809D01*
X97233333Y-94561904D01*
X97185714Y-94657142D01*
X97138095Y-94704761D01*
X97042857Y-94752380D01*
X96757142Y-94752380D01*
X96661904Y-94704761D01*
X96614285Y-94657142D01*
X97566666Y-93752380D02*
X98185714Y-93752380D01*
X97852380Y-94133333D01*
X97995238Y-94133333D01*
X98090476Y-94180952D01*
X98138095Y-94228571D01*
X98185714Y-94323809D01*
X98185714Y-94561904D01*
X98138095Y-94657142D01*
X98090476Y-94704761D01*
X97995238Y-94752380D01*
X97709523Y-94752380D01*
X97614285Y-94704761D01*
X97566666Y-94657142D01*
X98804761Y-93752380D02*
X98900000Y-93752380D01*
X98995238Y-93800000D01*
X99042857Y-93847619D01*
X99090476Y-93942857D01*
X99138095Y-94133333D01*
X99138095Y-94371428D01*
X99090476Y-94561904D01*
X99042857Y-94657142D01*
X98995238Y-94704761D01*
X98900000Y-94752380D01*
X98804761Y-94752380D01*
X98709523Y-94704761D01*
X98661904Y-94657142D01*
X98614285Y-94561904D01*
X98566666Y-94371428D01*
X98566666Y-94133333D01*
X98614285Y-93942857D01*
X98661904Y-93847619D01*
X98709523Y-93800000D01*
X98804761Y-93752380D01*
X99566666Y-94752380D02*
X99566666Y-93752380D01*
X100138095Y-94752380D02*
X99709523Y-94180952D01*
X100138095Y-93752380D02*
X99566666Y-94323809D01*
X115085714Y-49452380D02*
X114514285Y-49452380D01*
X114800000Y-49452380D02*
X114800000Y-48452380D01*
X114704761Y-48595238D01*
X114609523Y-48690476D01*
X114514285Y-48738095D01*
X115514285Y-49452380D02*
X115514285Y-48452380D01*
X116085714Y-49452380D02*
X115657142Y-48880952D01*
X116085714Y-48452380D02*
X115514285Y-49023809D01*
X108066285Y-88336380D02*
X107494857Y-88336380D01*
X107780571Y-88336380D02*
X107780571Y-87336380D01*
X107685333Y-87479238D01*
X107590095Y-87574476D01*
X107494857Y-87622095D01*
X108494857Y-88336380D02*
X108494857Y-87336380D01*
X108828190Y-88050666D01*
X109161523Y-87336380D01*
X109161523Y-88336380D01*
X107939285Y-84907380D02*
X107367857Y-84907380D01*
X107653571Y-84907380D02*
X107653571Y-83907380D01*
X107558333Y-84050238D01*
X107463095Y-84145476D01*
X107367857Y-84193095D01*
X108367857Y-84907380D02*
X108367857Y-83907380D01*
X108701190Y-84621666D01*
X109034523Y-83907380D01*
X109034523Y-84907380D01*
X97734523Y-79827380D02*
X97163095Y-79827380D01*
X97448809Y-79827380D02*
X97448809Y-78827380D01*
X97353571Y-78970238D01*
X97258333Y-79065476D01*
X97163095Y-79113095D01*
X98353571Y-78827380D02*
X98448809Y-78827380D01*
X98544047Y-78875000D01*
X98591666Y-78922619D01*
X98639285Y-79017857D01*
X98686904Y-79208333D01*
X98686904Y-79446428D01*
X98639285Y-79636904D01*
X98591666Y-79732142D01*
X98544047Y-79779761D01*
X98448809Y-79827380D01*
X98353571Y-79827380D01*
X98258333Y-79779761D01*
X98210714Y-79732142D01*
X98163095Y-79636904D01*
X98115476Y-79446428D01*
X98115476Y-79208333D01*
X98163095Y-79017857D01*
X98210714Y-78922619D01*
X98258333Y-78875000D01*
X98353571Y-78827380D01*
X99115476Y-79827380D02*
X99115476Y-78827380D01*
X99686904Y-79827380D02*
X99258333Y-79255952D01*
X99686904Y-78827380D02*
X99115476Y-79398809D01*
X97734523Y-76652380D02*
X97163095Y-76652380D01*
X97448809Y-76652380D02*
X97448809Y-75652380D01*
X97353571Y-75795238D01*
X97258333Y-75890476D01*
X97163095Y-75938095D01*
X98353571Y-75652380D02*
X98448809Y-75652380D01*
X98544047Y-75700000D01*
X98591666Y-75747619D01*
X98639285Y-75842857D01*
X98686904Y-76033333D01*
X98686904Y-76271428D01*
X98639285Y-76461904D01*
X98591666Y-76557142D01*
X98544047Y-76604761D01*
X98448809Y-76652380D01*
X98353571Y-76652380D01*
X98258333Y-76604761D01*
X98210714Y-76557142D01*
X98163095Y-76461904D01*
X98115476Y-76271428D01*
X98115476Y-76033333D01*
X98163095Y-75842857D01*
X98210714Y-75747619D01*
X98258333Y-75700000D01*
X98353571Y-75652380D01*
X99115476Y-76652380D02*
X99115476Y-75652380D01*
X99686904Y-76652380D02*
X99258333Y-76080952D01*
X99686904Y-75652380D02*
X99115476Y-76223809D01*
X97448809Y-70572380D02*
X96972619Y-70572380D01*
X96925000Y-71048571D01*
X96972619Y-71000952D01*
X97067857Y-70953333D01*
X97305952Y-70953333D01*
X97401190Y-71000952D01*
X97448809Y-71048571D01*
X97496428Y-71143809D01*
X97496428Y-71381904D01*
X97448809Y-71477142D01*
X97401190Y-71524761D01*
X97305952Y-71572380D01*
X97067857Y-71572380D01*
X96972619Y-71524761D01*
X96925000Y-71477142D01*
X97925000Y-71477142D02*
X97972619Y-71524761D01*
X97925000Y-71572380D01*
X97877380Y-71524761D01*
X97925000Y-71477142D01*
X97925000Y-71572380D01*
X98829761Y-70572380D02*
X98639285Y-70572380D01*
X98544047Y-70620000D01*
X98496428Y-70667619D01*
X98401190Y-70810476D01*
X98353571Y-71000952D01*
X98353571Y-71381904D01*
X98401190Y-71477142D01*
X98448809Y-71524761D01*
X98544047Y-71572380D01*
X98734523Y-71572380D01*
X98829761Y-71524761D01*
X98877380Y-71477142D01*
X98925000Y-71381904D01*
X98925000Y-71143809D01*
X98877380Y-71048571D01*
X98829761Y-71000952D01*
X98734523Y-70953333D01*
X98544047Y-70953333D01*
X98448809Y-71000952D01*
X98401190Y-71048571D01*
X98353571Y-71143809D01*
X99353571Y-71572380D02*
X99353571Y-70572380D01*
X99925000Y-71572380D02*
X99496428Y-71000952D01*
X99925000Y-70572380D02*
X99353571Y-71143809D01*
X97190476Y-61280952D02*
X97095238Y-61233333D01*
X97047619Y-61185714D01*
X97000000Y-61090476D01*
X97000000Y-61042857D01*
X97047619Y-60947619D01*
X97095238Y-60900000D01*
X97190476Y-60852380D01*
X97380952Y-60852380D01*
X97476190Y-60900000D01*
X97523809Y-60947619D01*
X97571428Y-61042857D01*
X97571428Y-61090476D01*
X97523809Y-61185714D01*
X97476190Y-61233333D01*
X97380952Y-61280952D01*
X97190476Y-61280952D01*
X97095238Y-61328571D01*
X97047619Y-61376190D01*
X97000000Y-61471428D01*
X97000000Y-61661904D01*
X97047619Y-61757142D01*
X97095238Y-61804761D01*
X97190476Y-61852380D01*
X97380952Y-61852380D01*
X97476190Y-61804761D01*
X97523809Y-61757142D01*
X97571428Y-61661904D01*
X97571428Y-61471428D01*
X97523809Y-61376190D01*
X97476190Y-61328571D01*
X97380952Y-61280952D01*
X98000000Y-61757142D02*
X98047619Y-61804761D01*
X98000000Y-61852380D01*
X97952380Y-61804761D01*
X98000000Y-61757142D01*
X98000000Y-61852380D01*
X98428571Y-60947619D02*
X98476190Y-60900000D01*
X98571428Y-60852380D01*
X98809523Y-60852380D01*
X98904761Y-60900000D01*
X98952380Y-60947619D01*
X99000000Y-61042857D01*
X99000000Y-61138095D01*
X98952380Y-61280952D01*
X98380952Y-61852380D01*
X99000000Y-61852380D01*
X99428571Y-61852380D02*
X99428571Y-60852380D01*
X100000000Y-61852380D02*
X99571428Y-61280952D01*
X100000000Y-60852380D02*
X99428571Y-61423809D01*
X97734523Y-56967380D02*
X97163095Y-56967380D01*
X97448809Y-56967380D02*
X97448809Y-55967380D01*
X97353571Y-56110238D01*
X97258333Y-56205476D01*
X97163095Y-56253095D01*
X98353571Y-55967380D02*
X98448809Y-55967380D01*
X98544047Y-56015000D01*
X98591666Y-56062619D01*
X98639285Y-56157857D01*
X98686904Y-56348333D01*
X98686904Y-56586428D01*
X98639285Y-56776904D01*
X98591666Y-56872142D01*
X98544047Y-56919761D01*
X98448809Y-56967380D01*
X98353571Y-56967380D01*
X98258333Y-56919761D01*
X98210714Y-56872142D01*
X98163095Y-56776904D01*
X98115476Y-56586428D01*
X98115476Y-56348333D01*
X98163095Y-56157857D01*
X98210714Y-56062619D01*
X98258333Y-56015000D01*
X98353571Y-55967380D01*
X99115476Y-56967380D02*
X99115476Y-55967380D01*
X99686904Y-56967380D02*
X99258333Y-56395952D01*
X99686904Y-55967380D02*
X99115476Y-56538809D01*
X97734523Y-52522380D02*
X97163095Y-52522380D01*
X97448809Y-52522380D02*
X97448809Y-51522380D01*
X97353571Y-51665238D01*
X97258333Y-51760476D01*
X97163095Y-51808095D01*
X98353571Y-51522380D02*
X98448809Y-51522380D01*
X98544047Y-51570000D01*
X98591666Y-51617619D01*
X98639285Y-51712857D01*
X98686904Y-51903333D01*
X98686904Y-52141428D01*
X98639285Y-52331904D01*
X98591666Y-52427142D01*
X98544047Y-52474761D01*
X98448809Y-52522380D01*
X98353571Y-52522380D01*
X98258333Y-52474761D01*
X98210714Y-52427142D01*
X98163095Y-52331904D01*
X98115476Y-52141428D01*
X98115476Y-51903333D01*
X98163095Y-51712857D01*
X98210714Y-51617619D01*
X98258333Y-51570000D01*
X98353571Y-51522380D01*
X99115476Y-52522380D02*
X99115476Y-51522380D01*
X99686904Y-52522380D02*
X99258333Y-51950952D01*
X99686904Y-51522380D02*
X99115476Y-52093809D01*
X123626857Y-117038285D02*
X124055428Y-117181142D01*
X124769714Y-117181142D01*
X125055428Y-117038285D01*
X125198285Y-116895428D01*
X125341142Y-116609714D01*
X125341142Y-116324000D01*
X125198285Y-116038285D01*
X125055428Y-115895428D01*
X124769714Y-115752571D01*
X124198285Y-115609714D01*
X123912571Y-115466857D01*
X123769714Y-115324000D01*
X123626857Y-115038285D01*
X123626857Y-114752571D01*
X123769714Y-114466857D01*
X123912571Y-114324000D01*
X124198285Y-114181142D01*
X124912571Y-114181142D01*
X125341142Y-114324000D01*
X126626857Y-117181142D02*
X126626857Y-114181142D01*
X127341142Y-114181142D01*
X127769714Y-114324000D01*
X128055428Y-114609714D01*
X128198285Y-114895428D01*
X128341142Y-115466857D01*
X128341142Y-115895428D01*
X128198285Y-116466857D01*
X128055428Y-116752571D01*
X127769714Y-117038285D01*
X127341142Y-117181142D01*
X126626857Y-117181142D01*
X80756571Y-112053714D02*
X81756571Y-112053714D01*
X82185142Y-113625142D02*
X80756571Y-113625142D01*
X80756571Y-110625142D01*
X82185142Y-110625142D01*
X85185142Y-113339428D02*
X85042285Y-113482285D01*
X84613714Y-113625142D01*
X84328000Y-113625142D01*
X83899428Y-113482285D01*
X83613714Y-113196571D01*
X83470857Y-112910857D01*
X83328000Y-112339428D01*
X83328000Y-111910857D01*
X83470857Y-111339428D01*
X83613714Y-111053714D01*
X83899428Y-110768000D01*
X84328000Y-110625142D01*
X84613714Y-110625142D01*
X85042285Y-110768000D01*
X85185142Y-110910857D01*
X86328000Y-110910857D02*
X86470857Y-110768000D01*
X86756571Y-110625142D01*
X87470857Y-110625142D01*
X87756571Y-110768000D01*
X87899428Y-110910857D01*
X88042285Y-111196571D01*
X88042285Y-111482285D01*
X87899428Y-111910857D01*
X86185142Y-113625142D01*
X88042285Y-113625142D01*
X81518571Y-43473714D02*
X82518571Y-43473714D01*
X82947142Y-45045142D02*
X81518571Y-45045142D01*
X81518571Y-42045142D01*
X82947142Y-42045142D01*
X85947142Y-44759428D02*
X85804285Y-44902285D01*
X85375714Y-45045142D01*
X85090000Y-45045142D01*
X84661428Y-44902285D01*
X84375714Y-44616571D01*
X84232857Y-44330857D01*
X84090000Y-43759428D01*
X84090000Y-43330857D01*
X84232857Y-42759428D01*
X84375714Y-42473714D01*
X84661428Y-42188000D01*
X85090000Y-42045142D01*
X85375714Y-42045142D01*
X85804285Y-42188000D01*
X85947142Y-42330857D01*
X88804285Y-45045142D02*
X87090000Y-45045142D01*
X87947142Y-45045142D02*
X87947142Y-42045142D01*
X87661428Y-42473714D01*
X87375714Y-42759428D01*
X87090000Y-42902285D01*
X146312000Y-45553142D02*
X145312000Y-44124571D01*
X144597714Y-45553142D02*
X144597714Y-42553142D01*
X145740571Y-42553142D01*
X146026285Y-42696000D01*
X146169142Y-42838857D01*
X146312000Y-43124571D01*
X146312000Y-43553142D01*
X146169142Y-43838857D01*
X146026285Y-43981714D01*
X145740571Y-44124571D01*
X144597714Y-44124571D01*
X147454857Y-42838857D02*
X147597714Y-42696000D01*
X147883428Y-42553142D01*
X148597714Y-42553142D01*
X148883428Y-42696000D01*
X149026285Y-42838857D01*
X149169142Y-43124571D01*
X149169142Y-43410285D01*
X149026285Y-43838857D01*
X147312000Y-45553142D01*
X149169142Y-45553142D01*
X146058000Y-113625142D02*
X145058000Y-112196571D01*
X144343714Y-113625142D02*
X144343714Y-110625142D01*
X145486571Y-110625142D01*
X145772285Y-110768000D01*
X145915142Y-110910857D01*
X146058000Y-111196571D01*
X146058000Y-111625142D01*
X145915142Y-111910857D01*
X145772285Y-112053714D01*
X145486571Y-112196571D01*
X144343714Y-112196571D01*
X148915142Y-113625142D02*
X147200857Y-113625142D01*
X148058000Y-113625142D02*
X148058000Y-110625142D01*
X147772285Y-111053714D01*
X147486571Y-111339428D01*
X147200857Y-111482285D01*
X120904000Y-68834000D02*
X121412000Y-69342000D01*
X121412000Y-68326000D02*
X120904000Y-68834000D01*
X120904000Y-68834000D02*
X121412000Y-68326000D01*
X123952000Y-68834000D02*
X120904000Y-68834000D01*
X124270666Y-69667333D02*
X124223047Y-69619714D01*
X124127809Y-69476857D01*
X124080190Y-69381619D01*
X124032571Y-69238761D01*
X123984952Y-69000666D01*
X123984952Y-68810190D01*
X124032571Y-68572095D01*
X124080190Y-68429238D01*
X124127809Y-68334000D01*
X124223047Y-68191142D01*
X124270666Y-68143523D01*
X124651619Y-69286380D02*
X124651619Y-68286380D01*
X124984952Y-69000666D01*
X125318285Y-68286380D01*
X125318285Y-69286380D01*
X126223047Y-69286380D02*
X126223047Y-68762571D01*
X126175428Y-68667333D01*
X126080190Y-68619714D01*
X125889714Y-68619714D01*
X125794476Y-68667333D01*
X126223047Y-69238761D02*
X126127809Y-69286380D01*
X125889714Y-69286380D01*
X125794476Y-69238761D01*
X125746857Y-69143523D01*
X125746857Y-69048285D01*
X125794476Y-68953047D01*
X125889714Y-68905428D01*
X126127809Y-68905428D01*
X126223047Y-68857809D01*
X127127809Y-68619714D02*
X127127809Y-69429238D01*
X127080190Y-69524476D01*
X127032571Y-69572095D01*
X126937333Y-69619714D01*
X126794476Y-69619714D01*
X126699238Y-69572095D01*
X127127809Y-69238761D02*
X127032571Y-69286380D01*
X126842095Y-69286380D01*
X126746857Y-69238761D01*
X126699238Y-69191142D01*
X126651619Y-69095904D01*
X126651619Y-68810190D01*
X126699238Y-68714952D01*
X126746857Y-68667333D01*
X126842095Y-68619714D01*
X127032571Y-68619714D01*
X127127809Y-68667333D01*
X127603999Y-69286380D02*
X127603999Y-68619714D01*
X127603999Y-68286380D02*
X127556380Y-68334000D01*
X127603999Y-68381619D01*
X127651619Y-68334000D01*
X127603999Y-68286380D01*
X127603999Y-68381619D01*
X128508761Y-69238761D02*
X128413523Y-69286380D01*
X128223047Y-69286380D01*
X128127809Y-69238761D01*
X128080190Y-69191142D01*
X128032571Y-69095904D01*
X128032571Y-68810190D01*
X128080190Y-68714952D01*
X128127809Y-68667333D01*
X128223047Y-68619714D01*
X128413523Y-68619714D01*
X128508761Y-68667333D01*
X129651619Y-69238761D02*
X129794476Y-69286380D01*
X130032571Y-69286380D01*
X130127809Y-69238761D01*
X130175428Y-69191142D01*
X130223047Y-69095904D01*
X130223047Y-69000666D01*
X130175428Y-68905428D01*
X130127809Y-68857809D01*
X130032571Y-68810190D01*
X129842095Y-68762571D01*
X129746857Y-68714952D01*
X129699238Y-68667333D01*
X129651619Y-68572095D01*
X129651619Y-68476857D01*
X129699238Y-68381619D01*
X129746857Y-68334000D01*
X129842095Y-68286380D01*
X130080190Y-68286380D01*
X130223047Y-68334000D01*
X130651619Y-69286380D02*
X130651619Y-68619714D01*
X130651619Y-68714952D02*
X130699238Y-68667333D01*
X130794476Y-68619714D01*
X130937333Y-68619714D01*
X131032571Y-68667333D01*
X131080190Y-68762571D01*
X131080190Y-69286380D01*
X131080190Y-68762571D02*
X131127809Y-68667333D01*
X131223047Y-68619714D01*
X131365904Y-68619714D01*
X131461142Y-68667333D01*
X131508761Y-68762571D01*
X131508761Y-69286380D01*
X132127809Y-69286380D02*
X132032571Y-69238761D01*
X131984952Y-69191142D01*
X131937333Y-69095904D01*
X131937333Y-68810190D01*
X131984952Y-68714952D01*
X132032571Y-68667333D01*
X132127809Y-68619714D01*
X132270666Y-68619714D01*
X132365904Y-68667333D01*
X132413523Y-68714952D01*
X132461142Y-68810190D01*
X132461142Y-69095904D01*
X132413523Y-69191142D01*
X132365904Y-69238761D01*
X132270666Y-69286380D01*
X132127809Y-69286380D01*
X132889714Y-69286380D02*
X132889714Y-68286380D01*
X132984952Y-68905428D02*
X133270666Y-69286380D01*
X133270666Y-68619714D02*
X132889714Y-69000666D01*
X134080190Y-69238761D02*
X133984952Y-69286380D01*
X133794476Y-69286380D01*
X133699238Y-69238761D01*
X133651619Y-69143523D01*
X133651619Y-68762571D01*
X133699238Y-68667333D01*
X133794476Y-68619714D01*
X133984952Y-68619714D01*
X134080190Y-68667333D01*
X134127809Y-68762571D01*
X134127809Y-68857809D01*
X133651619Y-68953047D01*
X135842095Y-68334000D02*
X135746857Y-68286380D01*
X135604000Y-68286380D01*
X135461142Y-68334000D01*
X135365904Y-68429238D01*
X135318285Y-68524476D01*
X135270666Y-68714952D01*
X135270666Y-68857809D01*
X135318285Y-69048285D01*
X135365904Y-69143523D01*
X135461142Y-69238761D01*
X135604000Y-69286380D01*
X135699238Y-69286380D01*
X135842095Y-69238761D01*
X135889714Y-69191142D01*
X135889714Y-68857809D01*
X135699238Y-68857809D01*
X136461142Y-69286380D02*
X136365904Y-69238761D01*
X136318285Y-69191142D01*
X136270666Y-69095904D01*
X136270666Y-68810190D01*
X136318285Y-68714952D01*
X136365904Y-68667333D01*
X136461142Y-68619714D01*
X136604000Y-68619714D01*
X136699238Y-68667333D01*
X136746857Y-68714952D01*
X136794476Y-68810190D01*
X136794476Y-69095904D01*
X136746857Y-69191142D01*
X136699238Y-69238761D01*
X136604000Y-69286380D01*
X136461142Y-69286380D01*
X137604000Y-69238761D02*
X137508761Y-69286380D01*
X137318285Y-69286380D01*
X137223047Y-69238761D01*
X137175428Y-69143523D01*
X137175428Y-68762571D01*
X137223047Y-68667333D01*
X137318285Y-68619714D01*
X137508761Y-68619714D01*
X137604000Y-68667333D01*
X137651619Y-68762571D01*
X137651619Y-68857809D01*
X137175428Y-68953047D01*
X138032571Y-69238761D02*
X138127809Y-69286380D01*
X138318285Y-69286380D01*
X138413523Y-69238761D01*
X138461142Y-69143523D01*
X138461142Y-69095904D01*
X138413523Y-69000666D01*
X138318285Y-68953047D01*
X138175428Y-68953047D01*
X138080190Y-68905428D01*
X138032571Y-68810190D01*
X138032571Y-68762571D01*
X138080190Y-68667333D01*
X138175428Y-68619714D01*
X138318285Y-68619714D01*
X138413523Y-68667333D01*
X139651619Y-69286380D02*
X139651619Y-68286380D01*
X139651619Y-68762571D02*
X140223047Y-68762571D01*
X140223047Y-69286380D02*
X140223047Y-68286380D01*
X141080190Y-69238761D02*
X140984952Y-69286380D01*
X140794476Y-69286380D01*
X140699238Y-69238761D01*
X140651619Y-69143523D01*
X140651619Y-68762571D01*
X140699238Y-68667333D01*
X140794476Y-68619714D01*
X140984952Y-68619714D01*
X141080190Y-68667333D01*
X141127809Y-68762571D01*
X141127809Y-68857809D01*
X140651619Y-68953047D01*
X141556380Y-69286380D02*
X141556380Y-68619714D01*
X141556380Y-68810190D02*
X141604000Y-68714952D01*
X141651619Y-68667333D01*
X141746857Y-68619714D01*
X141842095Y-68619714D01*
X142556380Y-69238761D02*
X142461142Y-69286380D01*
X142270666Y-69286380D01*
X142175428Y-69238761D01*
X142127809Y-69143523D01*
X142127809Y-68762571D01*
X142175428Y-68667333D01*
X142270666Y-68619714D01*
X142461142Y-68619714D01*
X142556380Y-68667333D01*
X142604000Y-68762571D01*
X142604000Y-68857809D01*
X142127809Y-68953047D01*
X142937333Y-69667333D02*
X142984952Y-69619714D01*
X143080190Y-69476857D01*
X143127809Y-69381619D01*
X143175428Y-69238761D01*
X143223047Y-69000666D01*
X143223047Y-68810190D01*
X143175428Y-68572095D01*
X143127809Y-68429238D01*
X143080190Y-68334000D01*
X142984952Y-68191142D01*
X142937333Y-68143523D01*
D12*
X102330000Y-67410000D02*
X102330000Y-64670000D01*
X102330000Y-64670000D02*
X95790000Y-64670000D01*
X95790000Y-64670000D02*
X95790000Y-67410000D01*
X95790000Y-67410000D02*
X102330000Y-67410000D01*
X103100000Y-66040000D02*
X102330000Y-66040000D01*
X95020000Y-66040000D02*
X95790000Y-66040000D01*
X132620000Y-86755001D02*
X132620000Y-89495001D01*
X132620000Y-89495001D02*
X139160000Y-89495001D01*
X139160000Y-89495001D02*
X139160000Y-86755001D01*
X139160000Y-86755001D02*
X132620000Y-86755001D01*
X131850000Y-88125001D02*
X132620000Y-88125001D01*
X139930000Y-88125001D02*
X139160000Y-88125001D01*
X135350000Y-83920000D02*
X135350000Y-81180000D01*
X135350000Y-81180000D02*
X128810000Y-81180000D01*
X128810000Y-81180000D02*
X128810000Y-83920000D01*
X128810000Y-83920000D02*
X135350000Y-83920000D01*
X136120000Y-82550000D02*
X135350000Y-82550000D01*
X128040000Y-82550000D02*
X128810000Y-82550000D01*
X136530000Y-56506000D02*
X129170000Y-56506000D01*
X136530000Y-49666000D02*
X129170000Y-49666000D01*
X136530000Y-55986000D02*
X136530000Y-56506000D01*
X136530000Y-49666000D02*
X136530000Y-50186000D01*
X129170000Y-56380000D02*
X129170000Y-56506000D01*
X129170000Y-54094000D02*
X129170000Y-54365000D01*
X129170000Y-51808000D02*
X129170000Y-52079000D01*
X129170000Y-49666000D02*
X129170000Y-49792000D01*
X142150000Y-77580000D02*
X123250000Y-77580000D01*
X142150000Y-77580000D02*
X142150000Y-72280000D01*
X123250000Y-72280000D02*
X123250000Y-77580000D01*
X123250000Y-72280000D02*
X142150000Y-72280000D01*
X138430000Y-95236000D02*
X138430000Y-96600000D01*
X138430000Y-91360000D02*
X138430000Y-92724000D01*
X130690000Y-95236000D02*
X130690000Y-96600000D01*
X130690000Y-91360000D02*
X130690000Y-92724000D01*
X130690000Y-96600000D02*
X138430000Y-96600000D01*
X130690000Y-91360000D02*
X138430000Y-91360000D01*
X114300000Y-55866000D02*
X114300000Y-57230000D01*
X114300000Y-51990000D02*
X114300000Y-53354000D01*
X106560000Y-55866000D02*
X106560000Y-57230000D01*
X106560000Y-51990000D02*
X106560000Y-53354000D01*
X106560000Y-57230000D02*
X114300000Y-57230000D01*
X106560000Y-51990000D02*
X114300000Y-51990000D01*
X124460000Y-88886000D02*
X124460000Y-90250000D01*
X124460000Y-85010000D02*
X124460000Y-86374000D01*
X116720000Y-88886000D02*
X116720000Y-90250000D01*
X116720000Y-85010000D02*
X116720000Y-86374000D01*
X116720000Y-90250000D02*
X124460000Y-90250000D01*
X116720000Y-85010000D02*
X124460000Y-85010000D01*
X137136000Y-41910000D02*
X136366000Y-41910000D01*
X129056000Y-41910000D02*
X129826000Y-41910000D01*
X136366000Y-40540000D02*
X129826000Y-40540000D01*
X136366000Y-43280000D02*
X136366000Y-40540000D01*
X129826000Y-43280000D02*
X136366000Y-43280000D01*
X129826000Y-40540000D02*
X129826000Y-43280000D01*
X91210000Y-41910000D02*
X91980000Y-41910000D01*
X99290000Y-41910000D02*
X98520000Y-41910000D01*
X91980000Y-43280000D02*
X98520000Y-43280000D01*
X91980000Y-40540000D02*
X91980000Y-43280000D01*
X98520000Y-40540000D02*
X91980000Y-40540000D01*
X98520000Y-43280000D02*
X98520000Y-40540000D01*
X125944000Y-41910000D02*
G75*
G03*
X125944000Y-41910000I-2500000J0D01*
G01*
X126004000Y-43455000D02*
X126004000Y-40365000D01*
X120454000Y-41910462D02*
G75*
G02*
X126004000Y-40365170I2990000J462D01*
G01*
X120454000Y-41909538D02*
G75*
G03*
X126004000Y-43454830I2990000J-462D01*
G01*
X107148000Y-41910000D02*
G75*
G03*
X107148000Y-41910000I-2500000J0D01*
G01*
X102088000Y-40365000D02*
X102088000Y-43455000D01*
X107638000Y-41909538D02*
G75*
G02*
X102088000Y-43454830I-2990000J-462D01*
G01*
X107638000Y-41910462D02*
G75*
G03*
X102088000Y-40365170I-2990000J462D01*
G01*
X98776000Y-47698800D02*
X98776000Y-44858800D01*
X98536000Y-47698800D02*
X98536000Y-44858800D01*
X98656000Y-47698800D02*
X98656000Y-44858800D01*
X95816000Y-44858800D02*
X95816000Y-45038800D01*
X99256000Y-44858800D02*
X95816000Y-44858800D01*
X99256000Y-45038800D02*
X99256000Y-44858800D01*
X95816000Y-47698800D02*
X95816000Y-47518800D01*
X99256000Y-47698800D02*
X95816000Y-47698800D01*
X99256000Y-47518800D02*
X99256000Y-47698800D01*
X96440000Y-99930000D02*
X96440000Y-102870000D01*
X96680000Y-99930000D02*
X96680000Y-102870000D01*
X96560000Y-99930000D02*
X96560000Y-102870000D01*
X102120000Y-101400000D02*
X101100000Y-101400000D01*
X94640000Y-101400000D02*
X95660000Y-101400000D01*
X101100000Y-99930000D02*
X95660000Y-99930000D01*
X101100000Y-102870000D02*
X101100000Y-99930000D01*
X95660000Y-102870000D02*
X101100000Y-102870000D01*
X95660000Y-99930000D02*
X95660000Y-102870000D01*
X97420000Y-85600000D02*
X94580000Y-85600000D01*
X97420000Y-85840000D02*
X94580000Y-85840000D01*
X97420000Y-85720000D02*
X94580000Y-85720000D01*
X94580000Y-88560000D02*
X94760000Y-88560000D01*
X94580000Y-85120000D02*
X94580000Y-88560000D01*
X94760000Y-85120000D02*
X94580000Y-85120000D01*
X97420000Y-88560000D02*
X97240000Y-88560000D01*
X97420000Y-85120000D02*
X97420000Y-88560000D01*
X97240000Y-85120000D02*
X97420000Y-85120000D01*
X73680000Y-46539000D02*
X88220000Y-46539000D01*
X88220000Y-46539000D02*
X88220000Y-77509000D01*
X88220000Y-77509000D02*
X73680000Y-77509000D01*
X89114338Y-67314000D02*
X89114338Y-67814000D01*
X89114338Y-67814000D02*
X88681325Y-67564000D01*
X88681325Y-67564000D02*
X89114338Y-67314000D01*
X158984000Y-77413000D02*
X144444000Y-77413000D01*
X144444000Y-77413000D02*
X144444000Y-46443000D01*
X144444000Y-46443000D02*
X158984000Y-46443000D01*
X143549662Y-56638000D02*
X143549662Y-56138000D01*
X143549662Y-56138000D02*
X143982675Y-56388000D01*
X143982675Y-56388000D02*
X143549662Y-56638000D01*
X114316000Y-60138000D02*
X112666000Y-60138000D01*
X112666000Y-60138000D02*
X112666000Y-78038000D01*
X112666000Y-78038000D02*
X117966000Y-78038000D01*
X117966000Y-78038000D02*
X117966000Y-60138000D01*
X117966000Y-60138000D02*
X116316000Y-60138000D01*
X116316000Y-60138000D02*
G75*
G02*
X114316000Y-60138000I-1000000J0D01*
G01*
X119716000Y-38808000D02*
X119316000Y-38808000D01*
X119716000Y-39448000D02*
X119716000Y-38808000D01*
X108615000Y-45788000D02*
X108615000Y-39048000D01*
X119476000Y-45788000D02*
X119476000Y-39048000D01*
X119476000Y-39048000D02*
X108615000Y-39048000D01*
X119476000Y-45788000D02*
X108615000Y-45788000D01*
X119476000Y-44668000D02*
X108615000Y-44668000D01*
X119476000Y-39568000D02*
X108615000Y-39568000D01*
X135070214Y-102652000D02*
G75*
G03*
X135070214Y-102652000I-1414214J0D01*
G01*
X136626000Y-99532000D02*
X130686000Y-99532000D01*
X136626000Y-105772000D02*
X130686000Y-105772000D01*
X136776000Y-101312000D02*
X136776000Y-103992000D01*
X130536000Y-103992000D02*
X130536000Y-101312000D01*
X135070214Y-111796000D02*
G75*
G03*
X135070214Y-111796000I-1414214J0D01*
G01*
X136626000Y-108676000D02*
X130686000Y-108676000D01*
X136626000Y-114916000D02*
X130686000Y-114916000D01*
X136776000Y-110456000D02*
X136776000Y-113136000D01*
X130536000Y-113136000D02*
X130536000Y-110456000D01*
X111276000Y-49022000D02*
X112046000Y-49022000D01*
X119356000Y-49022000D02*
X118586000Y-49022000D01*
X112046000Y-50392000D02*
X118586000Y-50392000D01*
X112046000Y-47652000D02*
X112046000Y-50392000D01*
X118586000Y-47652000D02*
X112046000Y-47652000D01*
X118586000Y-50392000D02*
X118586000Y-47652000D01*
X119864000Y-97536000D02*
X119094000Y-97536000D01*
X111784000Y-97536000D02*
X112554000Y-97536000D01*
X119094000Y-96166000D02*
X112554000Y-96166000D01*
X119094000Y-98906000D02*
X119094000Y-96166000D01*
X112554000Y-98906000D02*
X119094000Y-98906000D01*
X112554000Y-96166000D02*
X112554000Y-98906000D01*
X94512000Y-52070000D02*
X95282000Y-52070000D01*
X102592000Y-52070000D02*
X101822000Y-52070000D01*
X95282000Y-53440000D02*
X101822000Y-53440000D01*
X95282000Y-50700000D02*
X95282000Y-53440000D01*
X101822000Y-50700000D02*
X95282000Y-50700000D01*
X101822000Y-53440000D02*
X101822000Y-50700000D01*
X102592000Y-61214000D02*
X101822000Y-61214000D01*
X94512000Y-61214000D02*
X95282000Y-61214000D01*
X101822000Y-59844000D02*
X95282000Y-59844000D01*
X101822000Y-62584000D02*
X101822000Y-59844000D01*
X95282000Y-62584000D02*
X101822000Y-62584000D01*
X95282000Y-59844000D02*
X95282000Y-62584000D01*
X94512000Y-56642000D02*
X95282000Y-56642000D01*
X102592000Y-56642000D02*
X101822000Y-56642000D01*
X95282000Y-58012000D02*
X101822000Y-58012000D01*
X95282000Y-55272000D02*
X95282000Y-58012000D01*
X101822000Y-55272000D02*
X95282000Y-55272000D01*
X101822000Y-58012000D02*
X101822000Y-55272000D01*
X94512000Y-97536000D02*
X95282000Y-97536000D01*
X102592000Y-97536000D02*
X101822000Y-97536000D01*
X95282000Y-98906000D02*
X101822000Y-98906000D01*
X95282000Y-96166000D02*
X95282000Y-98906000D01*
X101822000Y-96166000D02*
X95282000Y-96166000D01*
X101822000Y-98906000D02*
X101822000Y-96166000D01*
X111784000Y-94234000D02*
X112554000Y-94234000D01*
X119864000Y-94234000D02*
X119094000Y-94234000D01*
X112554000Y-95604000D02*
X119094000Y-95604000D01*
X112554000Y-92864000D02*
X112554000Y-95604000D01*
X119094000Y-92864000D02*
X112554000Y-92864000D01*
X119094000Y-95604000D02*
X119094000Y-92864000D01*
X102592000Y-71120000D02*
X101822000Y-71120000D01*
X94512000Y-71120000D02*
X95282000Y-71120000D01*
X101822000Y-69750000D02*
X95282000Y-69750000D01*
X101822000Y-72490000D02*
X101822000Y-69750000D01*
X95282000Y-72490000D02*
X101822000Y-72490000D01*
X95282000Y-69750000D02*
X95282000Y-72490000D01*
X94512000Y-75946000D02*
X95282000Y-75946000D01*
X102592000Y-75946000D02*
X101822000Y-75946000D01*
X95282000Y-77316000D02*
X101822000Y-77316000D01*
X95282000Y-74576000D02*
X95282000Y-77316000D01*
X101822000Y-74576000D02*
X95282000Y-74576000D01*
X101822000Y-77316000D02*
X101822000Y-74576000D01*
X94512000Y-79502000D02*
X95282000Y-79502000D01*
X102592000Y-79502000D02*
X101822000Y-79502000D01*
X95282000Y-80872000D02*
X101822000Y-80872000D01*
X95282000Y-78132000D02*
X95282000Y-80872000D01*
X101822000Y-78132000D02*
X95282000Y-78132000D01*
X101822000Y-80872000D02*
X101822000Y-78132000D01*
X102592000Y-94234000D02*
X101822000Y-94234000D01*
X94512000Y-94234000D02*
X95282000Y-94234000D01*
X101822000Y-92864000D02*
X95282000Y-92864000D01*
X101822000Y-95604000D02*
X101822000Y-92864000D01*
X95282000Y-95604000D02*
X101822000Y-95604000D01*
X95282000Y-92864000D02*
X95282000Y-95604000D01*
X104312000Y-87884000D02*
X105082000Y-87884000D01*
X112392000Y-87884000D02*
X111622000Y-87884000D01*
X105082000Y-89254000D02*
X111622000Y-89254000D01*
X105082000Y-86514000D02*
X105082000Y-89254000D01*
X111622000Y-86514000D02*
X105082000Y-86514000D01*
X111622000Y-89254000D02*
X111622000Y-86514000D01*
X104312000Y-84582000D02*
X105082000Y-84582000D01*
X112392000Y-84582000D02*
X111622000Y-84582000D01*
X105082000Y-85952000D02*
X111622000Y-85952000D01*
X105082000Y-83212000D02*
X105082000Y-85952000D01*
X111622000Y-83212000D02*
X105082000Y-83212000D01*
X111622000Y-85952000D02*
X111622000Y-83212000D01*
X158984000Y-109513000D02*
X144444000Y-109513000D01*
X144444000Y-109513000D02*
X144444000Y-78543000D01*
X144444000Y-78543000D02*
X158984000Y-78543000D01*
X143549662Y-99818000D02*
X143549662Y-99318000D01*
X143549662Y-99318000D02*
X143982675Y-99568000D01*
X143982675Y-99568000D02*
X143549662Y-99818000D01*
X91147000Y-118344000D02*
X91147000Y-103804000D01*
X91147000Y-103804000D02*
X122117000Y-103804000D01*
X122117000Y-103804000D02*
X122117000Y-118344000D01*
X100842000Y-102909662D02*
X101342000Y-102909662D01*
X101342000Y-102909662D02*
X101092000Y-103342675D01*
X101092000Y-103342675D02*
X100842000Y-102909662D01*
X73680000Y-78543000D02*
X88220000Y-78543000D01*
X88220000Y-78543000D02*
X88220000Y-109513000D01*
X88220000Y-109513000D02*
X73680000Y-109513000D01*
X89114338Y-99318000D02*
X89114338Y-99818000D01*
X89114338Y-99818000D02*
X88681325Y-99568000D01*
X88681325Y-99568000D02*
X89114338Y-99318000D01*
D11*
X98417142Y-68862380D02*
X98083809Y-68386190D01*
X97845714Y-68862380D02*
X97845714Y-67862380D01*
X98226666Y-67862380D01*
X98321904Y-67910000D01*
X98369523Y-67957619D01*
X98417142Y-68052857D01*
X98417142Y-68195714D01*
X98369523Y-68290952D01*
X98321904Y-68338571D01*
X98226666Y-68386190D01*
X97845714Y-68386190D01*
X99369523Y-68862380D02*
X98798095Y-68862380D01*
X99083809Y-68862380D02*
X99083809Y-67862380D01*
X98988571Y-68005238D01*
X98893333Y-68100476D01*
X98798095Y-68148095D01*
X99940952Y-68290952D02*
X99845714Y-68243333D01*
X99798095Y-68195714D01*
X99750476Y-68100476D01*
X99750476Y-68052857D01*
X99798095Y-67957619D01*
X99845714Y-67910000D01*
X99940952Y-67862380D01*
X100131428Y-67862380D01*
X100226666Y-67910000D01*
X100274285Y-67957619D01*
X100321904Y-68052857D01*
X100321904Y-68100476D01*
X100274285Y-68195714D01*
X100226666Y-68243333D01*
X100131428Y-68290952D01*
X99940952Y-68290952D01*
X99845714Y-68338571D01*
X99798095Y-68386190D01*
X99750476Y-68481428D01*
X99750476Y-68671904D01*
X99798095Y-68767142D01*
X99845714Y-68814761D01*
X99940952Y-68862380D01*
X100131428Y-68862380D01*
X100226666Y-68814761D01*
X100274285Y-68767142D01*
X100321904Y-68671904D01*
X100321904Y-68481428D01*
X100274285Y-68386190D01*
X100226666Y-68338571D01*
X100131428Y-68290952D01*
X135247142Y-86207381D02*
X134913809Y-85731191D01*
X134675714Y-86207381D02*
X134675714Y-85207381D01*
X135056666Y-85207381D01*
X135151904Y-85255001D01*
X135199523Y-85302620D01*
X135247142Y-85397858D01*
X135247142Y-85540715D01*
X135199523Y-85635953D01*
X135151904Y-85683572D01*
X135056666Y-85731191D01*
X134675714Y-85731191D01*
X136199523Y-86207381D02*
X135628095Y-86207381D01*
X135913809Y-86207381D02*
X135913809Y-85207381D01*
X135818571Y-85350239D01*
X135723333Y-85445477D01*
X135628095Y-85493096D01*
X137104285Y-85207381D02*
X136628095Y-85207381D01*
X136580476Y-85683572D01*
X136628095Y-85635953D01*
X136723333Y-85588334D01*
X136961428Y-85588334D01*
X137056666Y-85635953D01*
X137104285Y-85683572D01*
X137151904Y-85778810D01*
X137151904Y-86016905D01*
X137104285Y-86112143D01*
X137056666Y-86159762D01*
X136961428Y-86207381D01*
X136723333Y-86207381D01*
X136628095Y-86159762D01*
X136580476Y-86112143D01*
X131437142Y-80462380D02*
X131103809Y-79986190D01*
X130865714Y-80462380D02*
X130865714Y-79462380D01*
X131246666Y-79462380D01*
X131341904Y-79510000D01*
X131389523Y-79557619D01*
X131437142Y-79652857D01*
X131437142Y-79795714D01*
X131389523Y-79890952D01*
X131341904Y-79938571D01*
X131246666Y-79986190D01*
X130865714Y-79986190D01*
X132389523Y-80462380D02*
X131818095Y-80462380D01*
X132103809Y-80462380D02*
X132103809Y-79462380D01*
X132008571Y-79605238D01*
X131913333Y-79700476D01*
X131818095Y-79748095D01*
X133246666Y-79795714D02*
X133246666Y-80462380D01*
X133008571Y-79414761D02*
X132770476Y-80129047D01*
X133389523Y-80129047D01*
X139110952Y-53181238D02*
X139063333Y-53276476D01*
X138968094Y-53371714D01*
X138825237Y-53514571D01*
X138777618Y-53609809D01*
X138777618Y-53705047D01*
X139015713Y-53657428D02*
X138968094Y-53752666D01*
X138872856Y-53847904D01*
X138682380Y-53895523D01*
X138349047Y-53895523D01*
X138158571Y-53847904D01*
X138063333Y-53752666D01*
X138015713Y-53657428D01*
X138015713Y-53466952D01*
X138063333Y-53371714D01*
X138158571Y-53276476D01*
X138349047Y-53228857D01*
X138682380Y-53228857D01*
X138872856Y-53276476D01*
X138968094Y-53371714D01*
X139015713Y-53466952D01*
X139015713Y-53657428D01*
X139015713Y-52276476D02*
X139015713Y-52847904D01*
X139015713Y-52562190D02*
X138015713Y-52562190D01*
X138158571Y-52657428D01*
X138253809Y-52752666D01*
X138301428Y-52847904D01*
X133166666Y-71358571D02*
X132833333Y-71358571D01*
X132833333Y-71882380D02*
X132833333Y-70882380D01*
X133309523Y-70882380D01*
X134214285Y-71882380D02*
X133642857Y-71882380D01*
X133928571Y-71882380D02*
X133928571Y-70882380D01*
X133833333Y-71025238D01*
X133738095Y-71120476D01*
X133642857Y-71168095D01*
X129373333Y-98147142D02*
X129325714Y-98194761D01*
X129182857Y-98242380D01*
X129087619Y-98242380D01*
X128944761Y-98194761D01*
X128849523Y-98099523D01*
X128801904Y-98004285D01*
X128754285Y-97813809D01*
X128754285Y-97670952D01*
X128801904Y-97480476D01*
X128849523Y-97385238D01*
X128944761Y-97290000D01*
X129087619Y-97242380D01*
X129182857Y-97242380D01*
X129325714Y-97290000D01*
X129373333Y-97337619D01*
X129706666Y-97242380D02*
X130325714Y-97242380D01*
X129992380Y-97623333D01*
X130135238Y-97623333D01*
X130230476Y-97670952D01*
X130278095Y-97718571D01*
X130325714Y-97813809D01*
X130325714Y-98051904D01*
X130278095Y-98147142D01*
X130230476Y-98194761D01*
X130135238Y-98242380D01*
X129849523Y-98242380D01*
X129754285Y-98194761D01*
X129706666Y-98147142D01*
X133012380Y-98182380D02*
X132440952Y-98182380D01*
X132726666Y-98182380D02*
X132726666Y-97182380D01*
X132631428Y-97325238D01*
X132536190Y-97420476D01*
X132440952Y-97468095D01*
X133631428Y-97182380D02*
X133726666Y-97182380D01*
X133821904Y-97230000D01*
X133869523Y-97277619D01*
X133917142Y-97372857D01*
X133964761Y-97563333D01*
X133964761Y-97801428D01*
X133917142Y-97991904D01*
X133869523Y-98087142D01*
X133821904Y-98134761D01*
X133726666Y-98182380D01*
X133631428Y-98182380D01*
X133536190Y-98134761D01*
X133488571Y-98087142D01*
X133440952Y-97991904D01*
X133393333Y-97801428D01*
X133393333Y-97563333D01*
X133440952Y-97372857D01*
X133488571Y-97277619D01*
X133536190Y-97230000D01*
X133631428Y-97182380D01*
X134583809Y-97182380D02*
X134679047Y-97182380D01*
X134774285Y-97230000D01*
X134821904Y-97277619D01*
X134869523Y-97372857D01*
X134917142Y-97563333D01*
X134917142Y-97801428D01*
X134869523Y-97991904D01*
X134821904Y-98087142D01*
X134774285Y-98134761D01*
X134679047Y-98182380D01*
X134583809Y-98182380D01*
X134488571Y-98134761D01*
X134440952Y-98087142D01*
X134393333Y-97991904D01*
X134345714Y-97801428D01*
X134345714Y-97563333D01*
X134393333Y-97372857D01*
X134440952Y-97277619D01*
X134488571Y-97230000D01*
X134583809Y-97182380D01*
X135345714Y-97515714D02*
X135345714Y-98182380D01*
X135345714Y-97610952D02*
X135393333Y-97563333D01*
X135488571Y-97515714D01*
X135631428Y-97515714D01*
X135726666Y-97563333D01*
X135774285Y-97658571D01*
X135774285Y-98182380D01*
X136583809Y-97658571D02*
X136250476Y-97658571D01*
X136250476Y-98182380D02*
X136250476Y-97182380D01*
X136726666Y-97182380D01*
X109053333Y-58777142D02*
X109005714Y-58824761D01*
X108862857Y-58872380D01*
X108767619Y-58872380D01*
X108624761Y-58824761D01*
X108529523Y-58729523D01*
X108481904Y-58634285D01*
X108434285Y-58443809D01*
X108434285Y-58300952D01*
X108481904Y-58110476D01*
X108529523Y-58015238D01*
X108624761Y-57920000D01*
X108767619Y-57872380D01*
X108862857Y-57872380D01*
X109005714Y-57920000D01*
X109053333Y-57967619D01*
X109434285Y-57967619D02*
X109481904Y-57920000D01*
X109577142Y-57872380D01*
X109815238Y-57872380D01*
X109910476Y-57920000D01*
X109958095Y-57967619D01*
X110005714Y-58062857D01*
X110005714Y-58158095D01*
X109958095Y-58300952D01*
X109386666Y-58872380D01*
X110005714Y-58872380D01*
X120423333Y-84237142D02*
X120375714Y-84284761D01*
X120232857Y-84332380D01*
X120137619Y-84332380D01*
X119994761Y-84284761D01*
X119899523Y-84189523D01*
X119851904Y-84094285D01*
X119804285Y-83903809D01*
X119804285Y-83760952D01*
X119851904Y-83570476D01*
X119899523Y-83475238D01*
X119994761Y-83380000D01*
X120137619Y-83332380D01*
X120232857Y-83332380D01*
X120375714Y-83380000D01*
X120423333Y-83427619D01*
X121375714Y-84332380D02*
X120804285Y-84332380D01*
X121090000Y-84332380D02*
X121090000Y-83332380D01*
X120994761Y-83475238D01*
X120899523Y-83570476D01*
X120804285Y-83618095D01*
X132453142Y-44648380D02*
X132119809Y-44172190D01*
X131881714Y-44648380D02*
X131881714Y-43648380D01*
X132262666Y-43648380D01*
X132357904Y-43696000D01*
X132405523Y-43743619D01*
X132453142Y-43838857D01*
X132453142Y-43981714D01*
X132405523Y-44076952D01*
X132357904Y-44124571D01*
X132262666Y-44172190D01*
X131881714Y-44172190D01*
X133405523Y-44648380D02*
X132834095Y-44648380D01*
X133119809Y-44648380D02*
X133119809Y-43648380D01*
X133024571Y-43791238D01*
X132929333Y-43886476D01*
X132834095Y-43934095D01*
X133738857Y-43648380D02*
X134405523Y-43648380D01*
X133976952Y-44648380D01*
X90797142Y-44648380D02*
X90463809Y-44172190D01*
X90225714Y-44648380D02*
X90225714Y-43648380D01*
X90606666Y-43648380D01*
X90701904Y-43696000D01*
X90749523Y-43743619D01*
X90797142Y-43838857D01*
X90797142Y-43981714D01*
X90749523Y-44076952D01*
X90701904Y-44124571D01*
X90606666Y-44172190D01*
X90225714Y-44172190D01*
X91749523Y-44648380D02*
X91178095Y-44648380D01*
X91463809Y-44648380D02*
X91463809Y-43648380D01*
X91368571Y-43791238D01*
X91273333Y-43886476D01*
X91178095Y-43934095D01*
X92606666Y-43648380D02*
X92416190Y-43648380D01*
X92320952Y-43696000D01*
X92273333Y-43743619D01*
X92178095Y-43886476D01*
X92130476Y-44076952D01*
X92130476Y-44457904D01*
X92178095Y-44553142D01*
X92225714Y-44600761D01*
X92320952Y-44648380D01*
X92511428Y-44648380D01*
X92606666Y-44600761D01*
X92654285Y-44553142D01*
X92701904Y-44457904D01*
X92701904Y-44219809D01*
X92654285Y-44124571D01*
X92606666Y-44076952D01*
X92511428Y-44029333D01*
X92320952Y-44029333D01*
X92225714Y-44076952D01*
X92178095Y-44124571D01*
X92130476Y-44219809D01*
X122705904Y-46322380D02*
X122705904Y-45322380D01*
X122944000Y-45322380D01*
X123086857Y-45370000D01*
X123182095Y-45465238D01*
X123229714Y-45560476D01*
X123277333Y-45750952D01*
X123277333Y-45893809D01*
X123229714Y-46084285D01*
X123182095Y-46179523D01*
X123086857Y-46274761D01*
X122944000Y-46322380D01*
X122705904Y-46322380D01*
X124182095Y-45322380D02*
X123705904Y-45322380D01*
X123658285Y-45798571D01*
X123705904Y-45750952D01*
X123801142Y-45703333D01*
X124039238Y-45703333D01*
X124134476Y-45750952D01*
X124182095Y-45798571D01*
X124229714Y-45893809D01*
X124229714Y-46131904D01*
X124182095Y-46227142D01*
X124134476Y-46274761D01*
X124039238Y-46322380D01*
X123801142Y-46322380D01*
X123705904Y-46274761D01*
X123658285Y-46227142D01*
X106461904Y-45502380D02*
X106461904Y-44502380D01*
X106700000Y-44502380D01*
X106842857Y-44550000D01*
X106938095Y-44645238D01*
X106985714Y-44740476D01*
X107033333Y-44930952D01*
X107033333Y-45073809D01*
X106985714Y-45264285D01*
X106938095Y-45359523D01*
X106842857Y-45454761D01*
X106700000Y-45502380D01*
X106461904Y-45502380D01*
X107890476Y-44835714D02*
X107890476Y-45502380D01*
X107652380Y-44454761D02*
X107414285Y-45169047D01*
X108033333Y-45169047D01*
X96797904Y-46731180D02*
X96797904Y-45731180D01*
X97036000Y-45731180D01*
X97178857Y-45778800D01*
X97274095Y-45874038D01*
X97321714Y-45969276D01*
X97369333Y-46159752D01*
X97369333Y-46302609D01*
X97321714Y-46493085D01*
X97274095Y-46588323D01*
X97178857Y-46683561D01*
X97036000Y-46731180D01*
X96797904Y-46731180D01*
X97702666Y-45731180D02*
X98321714Y-45731180D01*
X97988380Y-46112133D01*
X98131238Y-46112133D01*
X98226476Y-46159752D01*
X98274095Y-46207371D01*
X98321714Y-46302609D01*
X98321714Y-46540704D01*
X98274095Y-46635942D01*
X98226476Y-46683561D01*
X98131238Y-46731180D01*
X97845523Y-46731180D01*
X97750285Y-46683561D01*
X97702666Y-46635942D01*
X97961904Y-101952380D02*
X97961904Y-100952380D01*
X98200000Y-100952380D01*
X98342857Y-101000000D01*
X98438095Y-101095238D01*
X98485714Y-101190476D01*
X98533333Y-101380952D01*
X98533333Y-101523809D01*
X98485714Y-101714285D01*
X98438095Y-101809523D01*
X98342857Y-101904761D01*
X98200000Y-101952380D01*
X97961904Y-101952380D01*
X98914285Y-101047619D02*
X98961904Y-101000000D01*
X99057142Y-100952380D01*
X99295238Y-100952380D01*
X99390476Y-101000000D01*
X99438095Y-101047619D01*
X99485714Y-101142857D01*
X99485714Y-101238095D01*
X99438095Y-101380952D01*
X98866666Y-101952380D01*
X99485714Y-101952380D01*
X98872380Y-87578095D02*
X97872380Y-87578095D01*
X97872380Y-87340000D01*
X97920000Y-87197142D01*
X98015238Y-87101904D01*
X98110476Y-87054285D01*
X98300952Y-87006666D01*
X98443809Y-87006666D01*
X98634285Y-87054285D01*
X98729523Y-87101904D01*
X98824761Y-87197142D01*
X98872380Y-87340000D01*
X98872380Y-87578095D01*
X98872380Y-86054285D02*
X98872380Y-86625714D01*
X98872380Y-86340000D02*
X97872380Y-86340000D01*
X98015238Y-86435238D01*
X98110476Y-86530476D01*
X98158095Y-86625714D01*
X89622380Y-67897333D02*
X90336666Y-67897333D01*
X90479523Y-67944952D01*
X90574761Y-68040190D01*
X90622380Y-68183047D01*
X90622380Y-68278285D01*
X90622380Y-66897333D02*
X90622380Y-67468761D01*
X90622380Y-67183047D02*
X89622380Y-67183047D01*
X89765238Y-67278285D01*
X89860476Y-67373523D01*
X89908095Y-67468761D01*
X142200380Y-56721333D02*
X142914666Y-56721333D01*
X143057523Y-56768952D01*
X143152761Y-56864190D01*
X143200380Y-57007047D01*
X143200380Y-57102285D01*
X142200380Y-56340380D02*
X142200380Y-55721333D01*
X142581333Y-56054666D01*
X142581333Y-55911809D01*
X142628952Y-55816571D01*
X142676571Y-55768952D01*
X142771809Y-55721333D01*
X143009904Y-55721333D01*
X143105142Y-55768952D01*
X143152761Y-55816571D01*
X143200380Y-55911809D01*
X143200380Y-56197523D01*
X143152761Y-56292761D01*
X143105142Y-56340380D01*
X114554095Y-58590380D02*
X114554095Y-59399904D01*
X114601714Y-59495142D01*
X114649333Y-59542761D01*
X114744571Y-59590380D01*
X114935047Y-59590380D01*
X115030285Y-59542761D01*
X115077904Y-59495142D01*
X115125523Y-59399904D01*
X115125523Y-58590380D01*
X116125523Y-59590380D02*
X115554095Y-59590380D01*
X115839809Y-59590380D02*
X115839809Y-58590380D01*
X115744571Y-58733238D01*
X115649333Y-58828476D01*
X115554095Y-58876095D01*
X113284095Y-46240380D02*
X113855523Y-46240380D01*
X113569809Y-47240380D02*
X113569809Y-46240380D01*
X114712666Y-47240380D02*
X114141238Y-47240380D01*
X114426952Y-47240380D02*
X114426952Y-46240380D01*
X114331714Y-46383238D01*
X114236476Y-46478476D01*
X114141238Y-46526095D01*
X132322666Y-107356761D02*
X132465523Y-107404380D01*
X132703619Y-107404380D01*
X132798857Y-107356761D01*
X132846476Y-107309142D01*
X132894095Y-107213904D01*
X132894095Y-107118666D01*
X132846476Y-107023428D01*
X132798857Y-106975809D01*
X132703619Y-106928190D01*
X132513142Y-106880571D01*
X132417904Y-106832952D01*
X132370285Y-106785333D01*
X132322666Y-106690095D01*
X132322666Y-106594857D01*
X132370285Y-106499619D01*
X132417904Y-106452000D01*
X132513142Y-106404380D01*
X132751238Y-106404380D01*
X132894095Y-106452000D01*
X133227428Y-106404380D02*
X133465523Y-107404380D01*
X133656000Y-106690095D01*
X133846476Y-107404380D01*
X134084571Y-106404380D01*
X134417904Y-106499619D02*
X134465523Y-106452000D01*
X134560761Y-106404380D01*
X134798857Y-106404380D01*
X134894095Y-106452000D01*
X134941714Y-106499619D01*
X134989333Y-106594857D01*
X134989333Y-106690095D01*
X134941714Y-106832952D01*
X134370285Y-107404380D01*
X134989333Y-107404380D01*
X132322666Y-116500761D02*
X132465523Y-116548380D01*
X132703619Y-116548380D01*
X132798857Y-116500761D01*
X132846476Y-116453142D01*
X132894095Y-116357904D01*
X132894095Y-116262666D01*
X132846476Y-116167428D01*
X132798857Y-116119809D01*
X132703619Y-116072190D01*
X132513142Y-116024571D01*
X132417904Y-115976952D01*
X132370285Y-115929333D01*
X132322666Y-115834095D01*
X132322666Y-115738857D01*
X132370285Y-115643619D01*
X132417904Y-115596000D01*
X132513142Y-115548380D01*
X132751238Y-115548380D01*
X132894095Y-115596000D01*
X133227428Y-115548380D02*
X133465523Y-116548380D01*
X133656000Y-115834095D01*
X133846476Y-116548380D01*
X134084571Y-115548380D01*
X134989333Y-116548380D02*
X134417904Y-116548380D01*
X134703619Y-116548380D02*
X134703619Y-115548380D01*
X134608380Y-115691238D01*
X134513142Y-115786476D01*
X134417904Y-115834095D01*
X117467142Y-51844380D02*
X117133809Y-51368190D01*
X116895714Y-51844380D02*
X116895714Y-50844380D01*
X117276666Y-50844380D01*
X117371904Y-50892000D01*
X117419523Y-50939619D01*
X117467142Y-51034857D01*
X117467142Y-51177714D01*
X117419523Y-51272952D01*
X117371904Y-51320571D01*
X117276666Y-51368190D01*
X116895714Y-51368190D01*
X118419523Y-51844380D02*
X117848095Y-51844380D01*
X118133809Y-51844380D02*
X118133809Y-50844380D01*
X118038571Y-50987238D01*
X117943333Y-51082476D01*
X117848095Y-51130095D01*
X118752857Y-50844380D02*
X119371904Y-50844380D01*
X119038571Y-51225333D01*
X119181428Y-51225333D01*
X119276666Y-51272952D01*
X119324285Y-51320571D01*
X119371904Y-51415809D01*
X119371904Y-51653904D01*
X119324285Y-51749142D01*
X119276666Y-51796761D01*
X119181428Y-51844380D01*
X118895714Y-51844380D01*
X118800476Y-51796761D01*
X118752857Y-51749142D01*
X107561142Y-97988380D02*
X107227809Y-97512190D01*
X106989714Y-97988380D02*
X106989714Y-96988380D01*
X107370666Y-96988380D01*
X107465904Y-97036000D01*
X107513523Y-97083619D01*
X107561142Y-97178857D01*
X107561142Y-97321714D01*
X107513523Y-97416952D01*
X107465904Y-97464571D01*
X107370666Y-97512190D01*
X106989714Y-97512190D01*
X108513523Y-97988380D02*
X107942095Y-97988380D01*
X108227809Y-97988380D02*
X108227809Y-96988380D01*
X108132571Y-97131238D01*
X108037333Y-97226476D01*
X107942095Y-97274095D01*
X108894476Y-97083619D02*
X108942095Y-97036000D01*
X109037333Y-96988380D01*
X109275428Y-96988380D01*
X109370666Y-97036000D01*
X109418285Y-97083619D01*
X109465904Y-97178857D01*
X109465904Y-97274095D01*
X109418285Y-97416952D01*
X108846857Y-97988380D01*
X109465904Y-97988380D01*
X90289142Y-52522380D02*
X89955809Y-52046190D01*
X89717714Y-52522380D02*
X89717714Y-51522380D01*
X90098666Y-51522380D01*
X90193904Y-51570000D01*
X90241523Y-51617619D01*
X90289142Y-51712857D01*
X90289142Y-51855714D01*
X90241523Y-51950952D01*
X90193904Y-51998571D01*
X90098666Y-52046190D01*
X89717714Y-52046190D01*
X91241523Y-52522380D02*
X90670095Y-52522380D01*
X90955809Y-52522380D02*
X90955809Y-51522380D01*
X90860571Y-51665238D01*
X90765333Y-51760476D01*
X90670095Y-51808095D01*
X92193904Y-52522380D02*
X91622476Y-52522380D01*
X91908190Y-52522380D02*
X91908190Y-51522380D01*
X91812952Y-51665238D01*
X91717714Y-51760476D01*
X91622476Y-51808095D01*
X90289142Y-61666380D02*
X89955809Y-61190190D01*
X89717714Y-61666380D02*
X89717714Y-60666380D01*
X90098666Y-60666380D01*
X90193904Y-60714000D01*
X90241523Y-60761619D01*
X90289142Y-60856857D01*
X90289142Y-60999714D01*
X90241523Y-61094952D01*
X90193904Y-61142571D01*
X90098666Y-61190190D01*
X89717714Y-61190190D01*
X91241523Y-61666380D02*
X90670095Y-61666380D01*
X90955809Y-61666380D02*
X90955809Y-60666380D01*
X90860571Y-60809238D01*
X90765333Y-60904476D01*
X90670095Y-60952095D01*
X91860571Y-60666380D02*
X91955809Y-60666380D01*
X92051047Y-60714000D01*
X92098666Y-60761619D01*
X92146285Y-60856857D01*
X92193904Y-61047333D01*
X92193904Y-61285428D01*
X92146285Y-61475904D01*
X92098666Y-61571142D01*
X92051047Y-61618761D01*
X91955809Y-61666380D01*
X91860571Y-61666380D01*
X91765333Y-61618761D01*
X91717714Y-61571142D01*
X91670095Y-61475904D01*
X91622476Y-61285428D01*
X91622476Y-61047333D01*
X91670095Y-60856857D01*
X91717714Y-60761619D01*
X91765333Y-60714000D01*
X91860571Y-60666380D01*
X91273333Y-57094380D02*
X90940000Y-56618190D01*
X90701904Y-57094380D02*
X90701904Y-56094380D01*
X91082857Y-56094380D01*
X91178095Y-56142000D01*
X91225714Y-56189619D01*
X91273333Y-56284857D01*
X91273333Y-56427714D01*
X91225714Y-56522952D01*
X91178095Y-56570571D01*
X91082857Y-56618190D01*
X90701904Y-56618190D01*
X91749523Y-57094380D02*
X91940000Y-57094380D01*
X92035238Y-57046761D01*
X92082857Y-56999142D01*
X92178095Y-56856285D01*
X92225714Y-56665809D01*
X92225714Y-56284857D01*
X92178095Y-56189619D01*
X92130476Y-56142000D01*
X92035238Y-56094380D01*
X91844761Y-56094380D01*
X91749523Y-56142000D01*
X91701904Y-56189619D01*
X91654285Y-56284857D01*
X91654285Y-56522952D01*
X91701904Y-56618190D01*
X91749523Y-56665809D01*
X91844761Y-56713428D01*
X92035238Y-56713428D01*
X92130476Y-56665809D01*
X92178095Y-56618190D01*
X92225714Y-56522952D01*
X91273333Y-97988380D02*
X90940000Y-97512190D01*
X90701904Y-97988380D02*
X90701904Y-96988380D01*
X91082857Y-96988380D01*
X91178095Y-97036000D01*
X91225714Y-97083619D01*
X91273333Y-97178857D01*
X91273333Y-97321714D01*
X91225714Y-97416952D01*
X91178095Y-97464571D01*
X91082857Y-97512190D01*
X90701904Y-97512190D01*
X91844761Y-97416952D02*
X91749523Y-97369333D01*
X91701904Y-97321714D01*
X91654285Y-97226476D01*
X91654285Y-97178857D01*
X91701904Y-97083619D01*
X91749523Y-97036000D01*
X91844761Y-96988380D01*
X92035238Y-96988380D01*
X92130476Y-97036000D01*
X92178095Y-97083619D01*
X92225714Y-97178857D01*
X92225714Y-97226476D01*
X92178095Y-97321714D01*
X92130476Y-97369333D01*
X92035238Y-97416952D01*
X91844761Y-97416952D01*
X91749523Y-97464571D01*
X91701904Y-97512190D01*
X91654285Y-97607428D01*
X91654285Y-97797904D01*
X91701904Y-97893142D01*
X91749523Y-97940761D01*
X91844761Y-97988380D01*
X92035238Y-97988380D01*
X92130476Y-97940761D01*
X92178095Y-97893142D01*
X92225714Y-97797904D01*
X92225714Y-97607428D01*
X92178095Y-97512190D01*
X92130476Y-97464571D01*
X92035238Y-97416952D01*
X108291333Y-94686380D02*
X107958000Y-94210190D01*
X107719904Y-94686380D02*
X107719904Y-93686380D01*
X108100857Y-93686380D01*
X108196095Y-93734000D01*
X108243714Y-93781619D01*
X108291333Y-93876857D01*
X108291333Y-94019714D01*
X108243714Y-94114952D01*
X108196095Y-94162571D01*
X108100857Y-94210190D01*
X107719904Y-94210190D01*
X108624666Y-93686380D02*
X109291333Y-93686380D01*
X108862761Y-94686380D01*
X91273333Y-71572380D02*
X90940000Y-71096190D01*
X90701904Y-71572380D02*
X90701904Y-70572380D01*
X91082857Y-70572380D01*
X91178095Y-70620000D01*
X91225714Y-70667619D01*
X91273333Y-70762857D01*
X91273333Y-70905714D01*
X91225714Y-71000952D01*
X91178095Y-71048571D01*
X91082857Y-71096190D01*
X90701904Y-71096190D01*
X92130476Y-70572380D02*
X91940000Y-70572380D01*
X91844761Y-70620000D01*
X91797142Y-70667619D01*
X91701904Y-70810476D01*
X91654285Y-71000952D01*
X91654285Y-71381904D01*
X91701904Y-71477142D01*
X91749523Y-71524761D01*
X91844761Y-71572380D01*
X92035238Y-71572380D01*
X92130476Y-71524761D01*
X92178095Y-71477142D01*
X92225714Y-71381904D01*
X92225714Y-71143809D01*
X92178095Y-71048571D01*
X92130476Y-71000952D01*
X92035238Y-70953333D01*
X91844761Y-70953333D01*
X91749523Y-71000952D01*
X91701904Y-71048571D01*
X91654285Y-71143809D01*
X91273333Y-76398380D02*
X90940000Y-75922190D01*
X90701904Y-76398380D02*
X90701904Y-75398380D01*
X91082857Y-75398380D01*
X91178095Y-75446000D01*
X91225714Y-75493619D01*
X91273333Y-75588857D01*
X91273333Y-75731714D01*
X91225714Y-75826952D01*
X91178095Y-75874571D01*
X91082857Y-75922190D01*
X90701904Y-75922190D01*
X92178095Y-75398380D02*
X91701904Y-75398380D01*
X91654285Y-75874571D01*
X91701904Y-75826952D01*
X91797142Y-75779333D01*
X92035238Y-75779333D01*
X92130476Y-75826952D01*
X92178095Y-75874571D01*
X92225714Y-75969809D01*
X92225714Y-76207904D01*
X92178095Y-76303142D01*
X92130476Y-76350761D01*
X92035238Y-76398380D01*
X91797142Y-76398380D01*
X91701904Y-76350761D01*
X91654285Y-76303142D01*
X91273333Y-79954380D02*
X90940000Y-79478190D01*
X90701904Y-79954380D02*
X90701904Y-78954380D01*
X91082857Y-78954380D01*
X91178095Y-79002000D01*
X91225714Y-79049619D01*
X91273333Y-79144857D01*
X91273333Y-79287714D01*
X91225714Y-79382952D01*
X91178095Y-79430571D01*
X91082857Y-79478190D01*
X90701904Y-79478190D01*
X92130476Y-79287714D02*
X92130476Y-79954380D01*
X91892380Y-78906761D02*
X91654285Y-79621047D01*
X92273333Y-79621047D01*
X91273333Y-94686380D02*
X90940000Y-94210190D01*
X90701904Y-94686380D02*
X90701904Y-93686380D01*
X91082857Y-93686380D01*
X91178095Y-93734000D01*
X91225714Y-93781619D01*
X91273333Y-93876857D01*
X91273333Y-94019714D01*
X91225714Y-94114952D01*
X91178095Y-94162571D01*
X91082857Y-94210190D01*
X90701904Y-94210190D01*
X91606666Y-93686380D02*
X92225714Y-93686380D01*
X91892380Y-94067333D01*
X92035238Y-94067333D01*
X92130476Y-94114952D01*
X92178095Y-94162571D01*
X92225714Y-94257809D01*
X92225714Y-94495904D01*
X92178095Y-94591142D01*
X92130476Y-94638761D01*
X92035238Y-94686380D01*
X91749523Y-94686380D01*
X91654285Y-94638761D01*
X91606666Y-94591142D01*
X101073333Y-88336380D02*
X100740000Y-87860190D01*
X100501904Y-88336380D02*
X100501904Y-87336380D01*
X100882857Y-87336380D01*
X100978095Y-87384000D01*
X101025714Y-87431619D01*
X101073333Y-87526857D01*
X101073333Y-87669714D01*
X101025714Y-87764952D01*
X100978095Y-87812571D01*
X100882857Y-87860190D01*
X100501904Y-87860190D01*
X101454285Y-87431619D02*
X101501904Y-87384000D01*
X101597142Y-87336380D01*
X101835238Y-87336380D01*
X101930476Y-87384000D01*
X101978095Y-87431619D01*
X102025714Y-87526857D01*
X102025714Y-87622095D01*
X101978095Y-87764952D01*
X101406666Y-88336380D01*
X102025714Y-88336380D01*
X101073333Y-84780380D02*
X100740000Y-84304190D01*
X100501904Y-84780380D02*
X100501904Y-83780380D01*
X100882857Y-83780380D01*
X100978095Y-83828000D01*
X101025714Y-83875619D01*
X101073333Y-83970857D01*
X101073333Y-84113714D01*
X101025714Y-84208952D01*
X100978095Y-84256571D01*
X100882857Y-84304190D01*
X100501904Y-84304190D01*
X102025714Y-84780380D02*
X101454285Y-84780380D01*
X101740000Y-84780380D02*
X101740000Y-83780380D01*
X101644761Y-83923238D01*
X101549523Y-84018476D01*
X101454285Y-84066095D01*
X141946380Y-99901333D02*
X142660666Y-99901333D01*
X142803523Y-99948952D01*
X142898761Y-100044190D01*
X142946380Y-100187047D01*
X142946380Y-100282285D01*
X141946380Y-98948952D02*
X141946380Y-99425142D01*
X142422571Y-99472761D01*
X142374952Y-99425142D01*
X142327333Y-99329904D01*
X142327333Y-99091809D01*
X142374952Y-98996571D01*
X142422571Y-98948952D01*
X142517809Y-98901333D01*
X142755904Y-98901333D01*
X142851142Y-98948952D01*
X142898761Y-98996571D01*
X142946380Y-99091809D01*
X142946380Y-99329904D01*
X142898761Y-99425142D01*
X142851142Y-99472761D01*
X98266666Y-104252380D02*
X98266666Y-104966666D01*
X98219047Y-105109523D01*
X98123809Y-105204761D01*
X97980952Y-105252380D01*
X97885714Y-105252380D01*
X99171428Y-104585714D02*
X99171428Y-105252380D01*
X98933333Y-104204761D02*
X98695238Y-104919047D01*
X99314285Y-104919047D01*
X89622380Y-99901333D02*
X90336666Y-99901333D01*
X90479523Y-99948952D01*
X90574761Y-100044190D01*
X90622380Y-100187047D01*
X90622380Y-100282285D01*
X89717619Y-99472761D02*
X89670000Y-99425142D01*
X89622380Y-99329904D01*
X89622380Y-99091809D01*
X89670000Y-98996571D01*
X89717619Y-98948952D01*
X89812857Y-98901333D01*
X89908095Y-98901333D01*
X90050952Y-98948952D01*
X90622380Y-99520380D01*
X90622380Y-98901333D01*
M02*
