M48
; DRILL file {KiCad 5.1.6-c6e7f7d~87~ubuntu20.04.1} date Mon Sep 21 01:24:26 2020
; FORMAT={-:-/ absolute / inch / decimal}
; #@! TF.CreationDate,2020-09-21T01:24:26-04:00
; #@! TF.GenerationSoftware,Kicad,Pcbnew,5.1.6-c6e7f7d~87~ubuntu20.04.1
; #@! TF.FileFunction,Plated,1,2,PTH
FMAT,2
INCH
T1C0.0157
T2C0.0315
T3C0.0354
T4C0.0394
T5C0.0433
T6C0.1260
T7C0.1575
%
G90
G05
T1
X4.01Y-3.59
X4.2Y-4.0
X4.21Y-4.34
X4.27Y-2.42
X4.35Y-4.0
X4.73Y-3.36
X4.82Y-2.47
X4.9Y-2.0
X4.9Y-2.4
X4.95Y-2.8
X4.96Y-2.18
X4.99Y-3.71
T2
X3.68Y-2.41
X4.08Y-2.41
X3.68Y-3.71
X4.08Y-3.71
X5.0Y-3.25
X5.4Y-3.25
X5.15Y-3.4695
X5.55Y-3.4695
X4.0658Y-3.46
X4.4658Y-3.46
X4.36Y-3.84
X4.76Y-3.84
X3.68Y-2.8
X4.08Y-2.8
X3.7Y-2.6
X4.1Y-2.6
X4.0658Y-3.33
X4.4658Y-3.33
X3.68Y-2.23
X4.08Y-2.23
X3.68Y-3.13
X4.08Y-3.13
X4.36Y-3.71
X4.76Y-3.71
X4.39Y-2.42
X4.39Y-2.52
X4.39Y-2.62
X4.39Y-2.72
X4.39Y-2.82
X4.39Y-2.92
X4.39Y-3.02
X4.69Y-2.42
X4.69Y-2.52
X4.69Y-2.62
X4.69Y-2.72
X4.69Y-2.82
X4.69Y-2.92
X4.69Y-3.02
X3.68Y-2.05
X4.08Y-2.05
X4.34Y-1.93
X4.74Y-1.93
X3.68Y-3.84
X4.08Y-3.84
X3.55Y-1.65
X3.95Y-1.65
X5.04Y-1.65
X5.44Y-1.65
X3.68Y-2.99
X4.08Y-2.99
T3
X4.81Y-1.65
X4.91Y-1.65
X4.07Y-1.65
X4.17Y-1.65
T4
X5.0Y-2.95
X5.4488Y-2.95
X3.2882Y-2.2783
X3.2882Y-2.3874
X3.2882Y-2.4964
X3.2882Y-2.6055
X3.4Y-2.2238
X3.4Y-2.3328
X3.4Y-2.4419
X3.4Y-2.5509
X3.4Y-2.66
X5.76Y-2.22
X5.76Y-2.3291
X5.76Y-2.4381
X5.76Y-2.5472
X5.76Y-2.6562
X5.8718Y-2.2745
X5.8718Y-2.3836
X5.8718Y-2.4926
X5.8718Y-2.6017
X5.76Y-3.4838
X5.76Y-3.5928
X5.76Y-3.7019
X5.76Y-3.8109
X5.76Y-3.92
X5.8718Y-3.5383
X5.8718Y-3.6474
X5.8718Y-3.7564
X5.8718Y-3.8655
X5.1341Y-4.3128
X5.1341Y-4.49
X5.39Y-4.3128
X5.39Y-4.49
X5.15Y-3.7
X5.4453Y-3.7
X3.7795Y-3.3189
X3.7795Y-3.5189
X3.2882Y-3.5383
X3.2882Y-3.6474
X3.2882Y-3.7564
X3.2882Y-3.8655
X3.4Y-3.4838
X3.4Y-3.5928
X3.4Y-3.7019
X3.4Y-3.8109
X3.4Y-3.92
X4.2Y-2.15
X4.4953Y-2.15
X3.74Y-1.822
X3.94Y-1.822
X4.6Y-3.45
X4.8953Y-3.45
X3.98Y-4.16
X4.0345Y-4.2718
X4.0891Y-4.16
X4.1436Y-4.2718
X4.1981Y-4.16
X4.2526Y-4.2718
X4.3072Y-4.16
X4.3617Y-4.2718
X4.4162Y-4.16
X5.1341Y-3.9528
X5.1341Y-4.13
X5.39Y-3.9528
X5.39Y-4.13
T5
X3.6732Y-3.9921
X4.0732Y-3.9921
X4.34Y-1.67
X4.44Y-1.67
X4.54Y-1.67
X4.64Y-1.67
X5.05Y-2.0
X5.05Y-2.09
X5.05Y-2.18
T6
X3.3441Y-1.9498
X3.3441Y-2.934
X5.8159Y-1.946
X5.8159Y-2.9302
X5.8159Y-3.2098
X5.8159Y-4.194
X3.3441Y-3.2098
X3.3441Y-4.194
X3.706Y-4.2159
X4.6902Y-4.2159
T7
X3.0591Y-1.6614
X3.0591Y-4.4902
X6.08Y-1.66
X6.1024Y-4.5079
T0
M30
